<?xml version="1.0" encoding="UTF-8" standalone="no"?>
<!-- Uploaded to: SVG Repo, www.svgrepo.com, Generator: SVG Repo Mixer Tools -->

<svg
   version="1.1"
   id="Layer_1"
   width="599.97968"
   height="600"
   viewBox="0 0 29.998984 30"
   enable-background="new 0 0 40 40"
   xml:space="preserve"
   sodipodi:docname="phone2.svg"
   inkscape:version="1.4.2 (f4327f4, 2025-05-13)"
   xmlns:inkscape="http://www.inkscape.org/namespaces/inkscape"
   xmlns:sodipodi="http://sodipodi.sourceforge.net/DTD/sodipodi-0.dtd"
   xmlns="http://www.w3.org/2000/svg"
   xmlns:svg="http://www.w3.org/2000/svg"><defs
   id="defs153" /><sodipodi:namedview
   id="namedview153"
   pagecolor="#ffffff"
   bordercolor="#000000"
   borderopacity="0.25"
   inkscape:showpageshadow="2"
   inkscape:pageopacity="0.0"
   inkscape:pagecheckerboard="0"
   inkscape:deskcolor="#d1d1d1"
   inkscape:zoom="0.483125"
   inkscape:cx="357.05045"
   inkscape:cy="332.21216"
   inkscape:window-width="1920"
   inkscape:window-height="991"
   inkscape:window-x="-9"
   inkscape:window-y="-9"
   inkscape:window-maximized="1"
   inkscape:current-layer="Layer_1" />
<g
   display="none"
   id="g2"
   transform="translate(-0.13650607,-0.1358344)">
	<path
   display="inline"
   d="m 20.01,36.5 c -0.277,0 -0.537,-0.137 -0.693,-0.368 L 9.468,21.529 C 8.297,19.668 7.678,17.536 7.678,15.367 7.678,8.824 13.206,3.5 20,3.5 c 6.795,0 12.322,5.324 12.322,11.867 0,2.164 -0.612,4.284 -1.77,6.129 L 20.701,36.132 C 20.547,36.363 20.287,36.5 20.01,36.5 Z M 20,5.17 c -5.873,0 -10.652,4.574 -10.652,10.197 0,1.854 0.525,3.669 1.52,5.251 l 9.14,13.55 9.146,-13.581 c 0.981,-1.566 1.499,-3.371 1.499,-5.22 C 30.652,9.744 25.873,5.17 20,5.17 Z"
   id="path1" />
	<path
   display="inline"
   d="m 20,20.857 c -3.159,0 -5.728,-2.482 -5.728,-5.535 0,-3.051 2.569,-5.534 5.728,-5.534 3.159,0 5.729,2.483 5.729,5.534 0,3.053 -2.571,5.535 -5.729,5.535 z m 0,-9.399 c -2.237,0 -4.057,1.734 -4.057,3.864 0,2.13 1.82,3.865 4.057,3.865 2.237,0 4.058,-1.734 4.058,-3.865 0,-2.13 -1.822,-3.864 -4.058,-3.864 z"
   id="path2" />
</g>
<path
   display="none"
   d="m 36.568494,34.153166 -10.646,-10.674 c 3.918,-4.69 3.688,-11.708 -0.707,-16.1140004 -2.252,-2.258 -5.248,-3.501 -8.433,-3.501 -3.185,0 -6.179,1.243 -8.4310001,3.501 -4.647,4.6600004 -4.647,12.2410004 0,16.8990004 2.2530001,2.257 5.2480001,3.5 8.4310001,3.5 2.866,0 5.573,-1.015 7.728,-2.86 l 10.639,10.665 c 0.193,0.197 0.452,0.295 0.708,0.295 0.256,0 0.514,-0.098 0.709,-0.293 0.393,-0.391 0.394,-1.027 0.002,-1.418 z m -26.9390001,-11.163 c -3.945,-3.958 -3.945,-10.395 0,-14.3510004 1.9120001,-1.914 4.4520001,-2.97 7.1530001,-2.97 2.701,0 5.243,1.056 7.153,2.97 3.946,3.9560004 3.946,10.3940004 0,14.3510004 -1.91,1.914 -4.452,2.969 -7.153,2.969 -2.701,0 -5.241,-1.055 -7.1530001,-2.969 z"
   id="path3" />
<path
   display="none"
   d="m 25.243494,34.712166 c -0.066,0 -0.136,-0.009 -0.206,-0.024 l -10.498,-2.561 -10.6100001,2.561 c -0.069,0.016 -0.139,0.024 -0.205,0.024 -0.191,0 -0.38,-0.064 -0.532,-0.184 -0.209,-0.164 -0.329,-0.412 -0.329,-0.678 V 8.4991656 c 0,-0.397 0.27,-0.741 0.657,-0.836 l 10.7600001,-2.623 0.407,0.003 10.504,2.558 10.607,-2.561 c 0.065,-0.016 0.135,-0.023 0.203,-0.023 0.195,0 0.38,0.063 0.533,0.183 0.21,0.163 0.329,0.41 0.329,0.676 V 31.228166 c 0,0.397 -0.27,0.741 -0.656,0.837 l -10.759,2.622 c -0.069,0.016 -0.139,0.025 -0.205,0.025 z m -9.899,-4.16 9.039,2.203 V 9.1751656 l -9.039,-2.203 z m 10.759,-21.3770004 V 32.755166 l 9.039,-2.202 V 6.9721656 Z m -21.5190001,0 V 32.755166 l 9.0390001,-2.202 V 6.9721656 Z"
   id="path4" />
<g
   display="none"
   id="g7"
   transform="translate(-0.13650607,-0.1358344)">
	<path
   display="inline"
   d="M 9.708,35 C 7.112,35 5,32.893 5,30.303 c 0,-2.592 2.112,-4.699 4.708,-4.699 2.595,0 4.707,2.107 4.707,4.699 0,2.59 -2.112,4.697 -4.707,4.697 z m 0,-7.555 c -1.578,0 -2.863,1.281 -2.863,2.857 0,1.574 1.285,2.855 2.863,2.855 1.578,0 2.861,-1.281 2.861,-2.855 -0.001,-1.575 -1.284,-2.857 -2.861,-2.857 z"
   id="path5" />
	<path
   display="inline"
   d="M 24.574,35 C 23.953,35 23.449,34.495 23.449,33.874 23.449,24.322 15.678,16.55 6.126,16.55 5.505,16.55 5,16.045 5,15.425 c 0,-0.62 0.505,-1.126 1.126,-1.126 10.792,0 19.573,8.781 19.573,19.575 0,0.621 -0.506,1.126 -1.125,1.126 z"
   id="path6" />
	<path
   display="inline"
   d="m 33.916,35 c -0.597,0 -1.082,-0.486 -1.082,-1.084 0,-14.75 -12,-26.751 -26.751,-26.751 C 5.486,7.165 5,6.68 5,6.083 5,5.486 5.486,5 6.083,5 22.027,5 35,17.972 35,33.916 35,34.514 34.514,35 33.916,35 Z"
   id="path7" />
</g>
<g
   display="none"
   id="g9"
   transform="translate(-0.13650607,-0.1358344)">
	<path
   display="inline"
   fill-rule="evenodd"
   clip-rule="evenodd"
   d="m 20,29.616 c -6.911,0 -13.412,-3.681 -17,-9.615 3.588,-5.935 10.089,-9.617 17,-9.617 6.91,0 13.412,3.682 17,9.617 -3.588,5.935 -10.09,9.615 -17,9.615 z M 19.998,12.254 c -5.817,0 -11.309,2.848 -14.687,7.618 l -0.088,0.125 0.088,0.124 c 3.378,4.77 8.87,7.618 14.687,7.618 5.82,0 11.311,-2.849 14.687,-7.618 l 0.089,-0.124 -0.089,-0.125 C 31.309,15.103 25.818,12.254 19.998,12.254 Z"
   id="path8" />
	<path
   display="inline"
   fill-rule="evenodd"
   clip-rule="evenodd"
   d="m 19.987,13.521 c -3.574,0 -6.478,2.9 -6.478,6.479 0,3.579 2.904,6.478 6.478,6.478 3.581,0 6.478,-2.898 6.478,-6.478 0,-3.58 -2.897,-6.479 -6.478,-6.479 z m 0,11.336 c -2.68,0 -4.858,-2.175 -4.858,-4.858 0,-2.683 2.178,-4.859 4.858,-4.859 2.686,0 4.858,2.175 4.858,4.859 0,2.684 -2.172,4.858 -4.858,4.858 z"
   id="path9" />
</g>
<path
   display="none"
   d="m 7.1994939,35.364166 c -0.399,0 -0.725,-0.325 -0.725,-0.726 v -7.599 c 0,-0.4 0.326,-0.725 0.725,-0.725 h 3.1810001 v -6.336 c 0,-0.342 0.276,-0.619 0.619,-0.619 h 8.247 v -5.949 h -3.181 c -0.398,0 -0.725,-0.325 -0.725,-0.726 V 5.0871656 c 0,-0.399 0.326,-0.723 0.725,-0.723 h 7.598 c 0.398,0 0.725,0.324 0.725,0.723 v 7.5990004 c 0,0.401 -0.326,0.726 -0.725,0.726 h -3.18 v 5.949 h 8.245 c 0.341,0 0.618,0.277 0.618,0.619 v 6.336 h 3.182 c 0.397,0 0.724,0.324 0.724,0.725 v 7.599 c 0,0.399 -0.326,0.725 -0.724,0.725 h -7.599 c -0.4,0 -0.726,-0.325 -0.726,-0.725 v -7.599 c 0,-0.4 0.325,-0.725 0.726,-0.725 h 3.179 v -5.717 h -16.491 v 5.717 h 3.18 c 0.399,0 0.725,0.324 0.725,0.725 v 7.599 c 0,0.4 -0.325,0.726 -0.725,0.726 H 7.1994939 Z m 0.725,-1.449 h 6.1490001 v -6.151 H 7.9244939 Z m 17.7290001,0 h 6.149 v -6.151 h -6.149 z m -8.863,-21.952 h 6.146 V 5.8131656 h -6.146 z"
   id="path10" />
<g
   display="none"
   id="g14"
   transform="translate(-0.13650607,-0.1358344)">
	<path
   display="inline"
   d="m 11.018,35.01 c -0.402,0 -0.736,-0.314 -0.759,-0.717 L 8.879,9.946 H 5.75 C 5.331,9.946 4.99,9.604 4.99,9.186 4.99,8.767 5.331,8.425 5.75,8.425 H 9.34 L 9.495,8.45 9.6,8.426 h 5.171 V 5.75 c 0,-0.419 0.34,-0.76 0.76,-0.76 h 8.939 c 0.419,0 0.76,0.341 0.76,0.76 v 2.676 h 5.174 l 0.175,0.028 0.118,-0.028 h 3.554 c 0.419,0 0.76,0.342 0.76,0.761 0,0.418 -0.341,0.76 -0.76,0.76 h -3.128 l -1.36,24.346 c -0.023,0.402 -0.356,0.718 -0.759,0.718 H 11.018 Z m 0.717,-1.52 H 28.284 L 29.6,9.946 H 10.4 Z M 16.29,8.426 h 7.42 V 6.51 h -7.42 z"
   id="path11" />
	<path
   display="inline"
   d="m 14.302,12.201 c -0.249,0.012 -0.435,0.102 -0.57,0.252 -0.135,0.152 -0.203,0.348 -0.192,0.551 l 0.998,17.608 c 0.024,0.401 0.357,0.716 0.759,0.716 v 0.19 l 0.045,-0.19 c 0.417,-0.024 0.737,-0.385 0.715,-0.804 L 15.058,12.918 c -0.024,-0.402 -0.356,-0.717 -0.756,-0.717 z"
   id="path12" />
	<path
   display="inline"
   d="m 25.709,12.202 c -0.445,0 -0.776,0.314 -0.8,0.716 l -1,17.606 c -0.022,0.419 0.298,0.779 0.717,0.804 l 0.044,0.19 v -0.19 c 0.402,0 0.735,-0.314 0.757,-0.716 l 1.001,-17.608 c 0.011,-0.203 -0.058,-0.398 -0.192,-0.551 -0.136,-0.15 -0.321,-0.24 -0.523,-0.251 -0.002,0 -0.003,0 -0.004,0 z"
   id="path13" />
	<path
   display="inline"
   d="m 20,12.201 c -0.419,0 -0.76,0.341 -0.76,0.76 v 17.607 c 0,0.419 0.341,0.76 0.76,0.76 0.419,0 0.76,-0.341 0.76,-0.76 V 12.961 c 0,-0.419 -0.341,-0.76 -0.76,-0.76 z"
   id="path14" />
</g>
<g
   display="none"
   id="g17"
   transform="translate(-0.13650607,-0.1358344)">
	<path
   display="inline"
   d="M 8.236,15.765 C 5.901,15.765 4,17.665 4,20 c 0,2.336 1.901,4.234 4.236,4.234 2.336,0 4.235,-1.898 4.235,-4.234 10e-4,-2.335 -1.899,-4.235 -4.235,-4.235 z m 0,7.059 c -1.557,0 -2.823,-1.268 -2.823,-2.824 0,-1.557 1.267,-2.824 2.823,-2.824 1.558,0 2.822,1.267 2.822,2.824 10e-4,1.557 -1.264,2.824 -2.822,2.824 z"
   id="path15" />
	<path
   display="inline"
   d="m 20,15.765 c -2.334,0 -4.236,1.899 -4.236,4.235 0,2.336 1.902,4.234 4.236,4.234 2.337,0 4.236,-1.898 4.236,-4.234 0,-2.335 -1.899,-4.235 -4.236,-4.235 z m 0,7.059 c -1.557,0 -2.822,-1.268 -2.822,-2.824 0,-1.557 1.266,-2.824 2.822,-2.824 1.559,0 2.822,1.267 2.822,2.824 0,1.557 -1.263,2.824 -2.822,2.824 z"
   id="path16" />
	<path
   display="inline"
   d="m 31.764,15.765 c -2.334,0 -4.235,1.899 -4.235,4.235 0,2.336 1.901,4.234 4.235,4.234 C 34.101,24.234 36,22.336 36,20 36,17.665 34.101,15.765 31.764,15.765 Z m 0,7.059 c -1.556,0 -2.822,-1.268 -2.822,-2.824 0,-1.557 1.267,-2.824 2.822,-2.824 1.559,0 2.823,1.267 2.823,2.824 0,1.557 -1.265,2.824 -2.823,2.824 z"
   id="path17" />
</g>
<path
   display="none"
   d="M 32.988494,18.989166 H 8.8434939 L 20.704494,7.3641656 c 0.345,-0.338 0.351,-0.892 0.013,-1.237 -0.338,-0.345 -0.892,-0.35 -1.237,-0.012 L 6.1254939,19.203166 c -0.167,0.164 -0.262,0.39 -0.262,0.626 0,0.005 0,0.011 0,0.017 0,0.007 0,0.012 0,0.018 0,0.319 0.171,0.598 0.427,0.751 l 13.2630001,12.999 c 0.17,0.167 0.392,0.25 0.613,0.25 0.227,0 0.453,-0.088 0.625,-0.262 0.338,-0.346 0.332,-0.9 -0.013,-1.238 L 8.9184939,20.739166 H 32.988494 c 0.482,0 0.875,-0.392 0.875,-0.875 0,-0.483 -0.393,-0.875 -0.875,-0.875 z"
   id="path18" />
<path
   display="none"
   d="m 33.863494,19.864166 c 0,-0.32 -0.172,-0.599 -0.428,-0.751 l -13.262,-12.9990004 c -0.345,-0.338 -0.899,-0.333 -1.237,0.012 -0.338,0.345 -0.335,0.899 0.011,1.238 l 11.861,11.6250004 H 6.7384939 c -0.482,0 -0.875,0.392 -0.875,0.875 0,0.483 0.393,0.875 0.875,0.875 H 30.883494 l -11.862,11.625 c -0.344,0.339 -0.35,0.893 -0.012,1.238 0.172,0.174 0.399,0.262 0.625,0.262 0.221,0 0.442,-0.083 0.612,-0.25 l 13.353,-13.089 c 0.168,-0.164 0.264,-0.39 0.264,-0.626 0,-0.005 -0.001,-0.011 -0.001,-0.017 0,-0.007 0.001,-0.012 0.001,-0.018 z"
   id="path19" />
<path
   display="none"
   d="m 33.613494,19.480166 -13.09,-13.3540004 c -0.164,-0.167 -0.389,-0.262 -0.623,-0.262 -0.007,0 -0.014,0.001 -0.02,0.001 -0.006,0 -0.011,-0.001 -0.017,-0.001 -0.32,0 -0.598,0.172 -0.751,0.428 L 6.1134939,19.554166 c -0.338,0.345 -0.332,0.899 0.013,1.237 0.171,0.167 0.391,0.25 0.612,0.25 0.227,-0.001 0.454,-0.088 0.625,-0.263 L 18.988494,8.9181656 V 32.988166 c 0,0.483 0.393,0.876 0.875,0.876 0.483,0 0.875,-0.393 0.875,-0.875 V 8.8451656 l 11.625,11.8600004 c 0.338,0.345 0.893,0.35 1.237,0.013 0.345,-0.339 0.351,-0.894 0.013,-1.238 z"
   id="path20" />
<path
   display="none"
   d="m 33.600494,18.935166 c -0.345,-0.337 -0.899,-0.332 -1.237,0.014 l -11.625,11.86 V 6.7391656 c 0,-0.483 -0.392,-0.875 -0.875,-0.875 -0.482,0 -0.875,0.392 -0.875,0.875 V 30.884166 l -11.6250001,-11.861 c -0.338,-0.345 -0.892,-0.351 -1.237,-0.013 -0.345,0.338 -0.351,0.892 -0.013,1.237 l 13.0900001,13.354 c 0.164,0.168 0.389,0.263 0.625,0.263 0.005,0 0.012,-10e-4 0.018,-10e-4 0.006,0 0.011,10e-4 0.017,10e-4 0.32,0 0.599,-0.172 0.752,-0.428 l 12.998,-13.262 c 0.338,-0.345 0.332,-0.9 -0.013,-1.239 z"
   id="path21" />
<path
   display="none"
   d="m 26.577494,33.864166 c -0.222,0 -0.442,-0.083 -0.612,-0.251 l -13.429,-13.16 c -0.167,-0.164 -0.262,-0.39 -0.262,-0.624 0,-0.236 0.095,-0.462 0.262,-0.626 l 13.354,-13.0880004 c 0.344,-0.339 0.898,-0.334 1.237,0.011 0.338,0.346 0.331,0.899 -0.013,1.237 l -12.715,12.4660004 12.79,12.536 c 0.345,0.337 0.351,0.892 0.013,1.237 -0.171,0.174 -0.4,0.262 -0.625,0.262 z"
   id="path22" />
<path
   display="none"
   d="m 13.223494,33.864166 c -0.225,0 -0.453,-0.088 -0.624,-0.262 -0.339,-0.346 -0.333,-0.899 0.01,-1.237 l 12.717,-12.466 -12.79,-12.5360004 c -0.345,-0.339 -0.35,-0.893 -0.013,-1.237 0.34,-0.344 0.894,-0.35 1.238,-0.012 l 13.429,13.1610004 c 0.167,0.164 0.262,0.39 0.262,0.624 0,0.236 -0.094,0.461 -0.262,0.625 l -13.353,13.09 c -0.171,0.167 -0.393,0.25 -0.614,0.25 z"
   id="path23" />
<path
   display="none"
   d="m 5.8014939,27.995166 c -0.236,0 -0.474,-0.089 -0.657,-0.269 -0.368,-0.362 -0.375,-0.956 -0.012,-1.325 l 14.1010001,-14.388 c 0.176,-0.179 0.417,-0.28 0.669,-0.28 0.252,0 0.493,0.101 0.669,0.28 l 14.023,14.308 c 0.363,0.369 0.356,0.963 -0.012,1.326 -0.37,0.361 -0.965,0.356 -1.326,-0.014 l -13.354,-13.623 -13.4310001,13.704 c -0.185,0.187 -0.426,0.28 -0.67,0.281 z"
   id="path24" />
<path
   display="none"
   d="m 19.825494,27.995166 c -0.253,0 -0.493,-0.102 -0.67,-0.281 l -14.0220001,-14.308 c -0.364,-0.37 -0.357,-0.963 0.011,-1.326 0.372,-0.362 0.965,-0.356 1.326,0.013 l 13.3540001,13.625 13.433,-13.704 c 0.361,-0.37 0.954,-0.376 1.326,-0.015 0.368,0.363 0.375,0.957 0.013,1.327 l -14.101,14.388 c -0.178,0.179 -0.418,0.281 -0.67,0.281 z"
   id="path25" />
<g
   display="none"
   id="g34"
   transform="translate(-0.13650607,-0.1358344)">
	<path
   display="inline"
   d="M 6.72,34 C 6.323,34 6,33.678 6,33.281 V 27.47 c 0,-0.396 0.323,-0.721 0.72,-0.721 h 5.81 c 0.397,0 0.72,0.324 0.72,0.721 v 5.811 C 13.25,33.677 12.927,34 12.53,34 Z M 7.439,32.561 H 11.81 V 28.19 H 7.439 Z"
   id="path26" />
	<path
   display="inline"
   d="m 17.095,34 c -0.396,0 -0.72,-0.322 -0.72,-0.719 V 27.47 c 0,-0.396 0.323,-0.721 0.72,-0.721 h 5.811 c 0.396,0 0.72,0.324 0.72,0.721 v 5.811 c 0,0.396 -0.323,0.719 -0.72,0.719 z m 0.72,-1.439 h 4.371 V 28.19 h -4.371 z"
   id="path27" />
	<path
   display="inline"
   d="M 27.471,34 C 27.074,34 26.75,33.678 26.75,33.281 V 27.47 c 0,-0.396 0.323,-0.721 0.721,-0.721 h 5.81 c 0.396,0 0.72,0.324 0.72,0.721 v 5.811 C 34,33.678 33.677,34 33.28,34 Z m 0.718,-1.439 H 32.56 V 28.19 h -4.371 z"
   id="path28" />
	<path
   display="inline"
   d="M 6.72,23.625 C 6.324,23.625 6,23.303 6,22.906 v -5.811 c 0,-0.397 0.323,-0.72 0.72,-0.72 h 5.81 c 0.397,0 0.72,0.323 0.72,0.72 v 5.811 c 0,0.396 -0.323,0.719 -0.72,0.719 z M 7.439,22.186 H 11.81 V 17.815 H 7.439 Z"
   id="path29" />
	<path
   display="inline"
   d="m 17.095,23.625 c -0.396,0 -0.72,-0.322 -0.72,-0.719 v -5.811 c 0,-0.397 0.323,-0.72 0.72,-0.72 h 5.811 c 0.396,0 0.72,0.323 0.72,0.72 v 5.811 c 0,0.396 -0.323,0.719 -0.72,0.719 z m 0.72,-1.439 h 4.371 v -4.371 h -4.371 z"
   id="path30" />
	<path
   display="inline"
   d="m 27.471,23.625 c -0.397,0 -0.721,-0.322 -0.721,-0.719 v -5.811 c 0,-0.397 0.323,-0.72 0.721,-0.72 h 5.81 c 0.396,0 0.72,0.323 0.72,0.72 v 5.811 c 0,0.396 -0.323,0.719 -0.72,0.719 z m 0.718,-1.439 h 4.371 v -4.371 h -4.371 z"
   id="path31" />
	<path
   display="inline"
   d="M 6.72,13.25 C 6.323,13.25 6,12.927 6,12.531 V 6.721 C 6,6.324 6.323,6 6.72,6 h 5.81 c 0.397,0 0.72,0.323 0.72,0.72 v 5.81 c 0,0.396 -0.323,0.719 -0.72,0.719 H 6.72 Z M 7.439,11.811 H 11.81 V 7.439 H 7.439 Z"
   id="path32" />
	<path
   display="inline"
   d="m 17.095,13.25 c -0.396,0 -0.72,-0.322 -0.72,-0.719 v -5.81 c 0,-0.397 0.323,-0.72 0.72,-0.72 h 5.811 c 0.396,0 0.72,0.323 0.72,0.72 v 5.81 c 0,0.396 -0.323,0.719 -0.72,0.719 z m 0.72,-1.439 h 4.371 V 7.439 h -4.371 z"
   id="path33" />
	<path
   display="inline"
   d="m 27.471,13.25 c -0.397,0 -0.721,-0.322 -0.721,-0.719 v -5.81 c 0,-0.397 0.323,-0.72 0.721,-0.72 h 5.81 C 33.677,6 34,6.324 34,6.721 v 5.81 c 0,0.396 -0.323,0.719 -0.72,0.719 z m 0.718,-1.439 H 32.56 V 7.439 h -4.371 z"
   id="path34" />
</g>
<g
   display="none"
   id="g43"
   transform="translate(-0.13650607,-0.1358344)">
	<path
   display="inline"
   d="M 16.225,8.013 H 33.174 C 33.63,8.013 34,7.642 34,7.185 34,6.73 33.63,6.359 33.174,6.359 H 16.225 c -0.457,0 -0.827,0.371 -0.827,0.826 0,0.457 0.37,0.828 0.827,0.828 z"
   id="path35" />
	<path
   display="inline"
   d="M 33.174,11.423 H 16.225 c -0.457,0 -0.827,0.369 -0.827,0.826 0,0.457 0.37,0.826 0.827,0.826 h 16.949 c 0.456,0 0.826,-0.369 0.826,-0.826 0,-0.457 -0.37,-0.826 -0.826,-0.826 z"
   id="path36" />
	<path
   display="inline"
   d="M 33.174,16.692 H 16.225 c -0.457,0 -0.827,0.371 -0.827,0.827 0,0.456 0.37,0.827 0.827,0.827 h 16.949 c 0.456,0 0.826,-0.371 0.826,-0.827 0,-0.456 -0.37,-0.827 -0.826,-0.827 z"
   id="path37" />
	<path
   display="inline"
   d="M 33.174,21.653 H 16.225 c -0.457,0 -0.827,0.371 -0.827,0.827 0,0.456 0.37,0.827 0.827,0.827 H 33.174 C 33.63,23.307 34,22.936 34,22.48 34,22.024 33.63,21.653 33.174,21.653 Z"
   id="path38" />
	<path
   display="inline"
   d="M 33.174,27.027 H 16.225 c -0.457,0 -0.827,0.37 -0.827,0.827 0,0.456 0.37,0.826 0.827,0.826 H 33.174 C 33.63,28.68 34,28.31 34,27.854 34,27.397 33.63,27.027 33.174,27.027 Z"
   id="path39" />
	<path
   display="inline"
   d="M 33.174,31.987 H 16.225 c -0.457,0 -0.827,0.371 -0.827,0.828 0,0.455 0.37,0.826 0.827,0.826 H 33.174 C 33.63,33.641 34,33.27 34,32.815 34,32.358 33.63,31.987 33.174,31.987 Z"
   id="path40" />
	<path
   display="inline"
   d="M 6.717,33.53 C 6.322,33.53 6,33.21 6,32.815 v -4.961 c 0,-0.396 0.322,-0.717 0.717,-0.717 h 4.961 c 0.395,0 0.717,0.321 0.717,0.717 v 4.961 c 0,0.395 -0.322,0.715 -0.717,0.715 z M 7.434,32.098 H 10.96 V 28.57 H 7.434 Z"
   id="path41" />
	<path
   display="inline"
   d="M 6.717,23.196 C 6.322,23.196 6,22.876 6,22.48 v -4.96 c 0,-0.396 0.322,-0.717 0.717,-0.717 h 4.961 c 0.395,0 0.717,0.321 0.717,0.717 v 4.961 c 0,0.396 -0.322,0.716 -0.717,0.716 H 6.717 Z M 7.434,21.763 H 10.96 V 18.236 H 7.434 Z"
   id="path42" />
	<path
   display="inline"
   d="M 6.717,12.862 C 6.322,12.862 6,12.541 6,12.146 V 7.185 C 6,6.79 6.322,6.468 6.717,6.468 h 4.961 c 0.395,0 0.717,0.322 0.717,0.717 v 4.961 c 0,0.396 -0.322,0.717 -0.717,0.717 H 6.717 Z M 7.434,11.429 H 10.96 V 7.901 H 7.434 Z"
   id="path43" />
</g>
<g
   display="none"
   id="g47"
   transform="translate(-0.13650607,-0.1358344)">
	<path
   display="inline"
   d="M 34.063,10.625 H 5.938 C 5.419,10.625 5,10.204 5,9.688 5,9.17 5.419,8.75 5.938,8.75 H 34.063 C 34.58,8.75 35,9.17 35,9.688 c 0,0.516 -0.42,0.937 -0.937,0.937"
   id="path44" />
	<path
   display="inline"
   d="M 34.063,20.938 H 5.938 C 5.419,20.938 5,20.517 5,20 5,19.482 5.419,19.062 5.938,19.062 H 34.063 C 34.58,19.063 35,19.482 35,20 c 0,0.517 -0.42,0.938 -0.937,0.938"
   id="path45" />
	<path
   display="inline"
   d="M 34.063,31.25 H 5.938 C 5.419,31.25 5,30.829 5,30.313 5,29.795 5.419,29.375 5.938,29.375 h 28.125 c 0.518,0 0.938,0.42 0.938,0.938 C 35,30.829 34.58,31.25 34.063,31.25"
   id="path46" />
	<path
   display="inline"
   d="M 34.063,20.938 H 5.938 C 5.419,20.938 5,20.517 5,20 5,19.482 5.419,19.062 5.938,19.062 H 34.063 C 34.58,19.063 35,19.482 35,20 c 0,0.517 -0.42,0.938 -0.937,0.938"
   id="path47" />
</g>
<path
   display="none"
   d="m 21.277494,19.864166 11.793,-11.7930004 c 0.391,-0.39 0.391,-1.023 0,-1.414 -0.391,-0.391 -1.023,-0.391 -1.414,0 L 19.863494,18.450166 8.0704939,6.6571656 c -0.39,-0.391 -1.023,-0.391 -1.414,0 -0.391,0.391 -0.391,1.023 0,1.414 L 18.449494,19.864166 6.6564939,31.657166 c -0.391,0.391 -0.391,1.023 0,1.414 0.195,0.195 0.452,0.293 0.707,0.293 0.256,0 0.511,-0.098 0.707,-0.293 l 11.7930001,-11.793 11.793,11.793 c 0.195,0.195 0.451,0.293 0.707,0.293 0.256,0 0.512,-0.098 0.707,-0.293 0.391,-0.391 0.391,-1.023 0,-1.414 z"
   id="path48" />
<path
   display="none"
   d="m 9.2744939,34.864166 c -0.411,0 -0.758,-0.342 -0.758,-0.746 V 5.6221656 c 0,-0.418 0.339,-0.758 0.758,-0.758 H 23.980494 c 0.198,0 0.394,0.084 0.546,0.236 l 6.449,6.4610004 c 0.15,0.13 0.235,0.324 0.235,0.535 v 22.021 c 0,0.405 -0.347,0.747 -0.758,0.747 z m 0.7590001,-1.504 h 19.672 v -20.507 h -5.726 c -0.419,0 -0.759,-0.34 -0.759,-0.757 V 6.3681656 h -13.187 z m 14.705,-22.011 h 3.9 l -3.9,-3.9140004 z"
   id="path49" />
<g
   display="none"
   id="g53"
   transform="translate(-0.13650607,-0.1358344)">
	<path
   display="inline"
   d="m 12.966,17.262 c -0.483,0 -0.878,0.395 -0.878,0.878 0,0.483 0.395,0.877 0.878,0.877 h 13.518 c 0.483,0 0.878,-0.394 0.878,-0.877 0,-0.483 -0.395,-0.878 -0.878,-0.878 z"
   id="path50" />
	<path
   display="inline"
   d="M 9.411,35 C 9,35 8.652,34.658 8.652,34.254 V 5.758 C 8.652,5.34 8.992,5 9.411,5 h 14.704 c 0.2,0 0.395,0.084 0.547,0.236 l 6.449,6.461 c 0.15,0.13 0.236,0.324 0.236,0.534 v 22.022 c 0,0.404 -0.349,0.746 -0.759,0.746 H 9.411 Z M 10.17,33.496 H 29.842 V 12.989 h -5.727 c -0.417,0 -0.758,-0.34 -0.758,-0.757 V 6.504 H 10.17 Z M 24.875,11.485 h 3.9 l -3.9,-3.915 z"
   id="path51" />
	<path
   display="inline"
   d="m 12.966,21.164 c -0.483,0 -0.878,0.395 -0.878,0.878 0,0.483 0.395,0.878 0.878,0.878 h 13.518 c 0.483,0 0.878,-0.395 0.878,-0.878 0,-0.483 -0.395,-0.878 -0.878,-0.878 z"
   id="path52" />
	<path
   display="inline"
   d="m 12.966,25.065 c -0.483,0 -0.878,0.395 -0.878,0.878 0,0.484 0.395,0.877 0.878,0.877 h 13.518 c 0.483,0 0.878,-0.393 0.878,-0.877 0,-0.483 -0.395,-0.878 -0.878,-0.878 z"
   id="path53" />
</g>
<g
   display="none"
   id="g60"
   transform="translate(-0.13650607,-0.1358344)">
	<path
   display="inline"
   d="m 14.766,16.227 c 0,0.45 0.367,0.816 0.817,0.816 h 12.578 c 0.449,0 0.817,-0.367 0.817,-0.816 0,-0.451 -0.368,-0.817 -0.817,-0.817 H 15.583 c -0.45,0 -0.817,0.366 -0.817,0.817 z"
   id="path54" />
	<path
   display="inline"
   d="M 32.468,10.232 26.466,4.219 C 26.324,4.078 26.144,4 25.959,4 H 12.274 c -0.389,0 -0.706,0.316 -0.706,0.706 v 26.516 c 0,0.377 0.323,0.694 0.706,0.694 h 14.757 v 2.685 H 8.727 V 9.484 H 11.5 v -1.4 H 8.02 c -0.389,0 -0.706,0.317 -0.706,0.707 V 35.306 C 7.313,35.683 7.637,36 8.02,36 h 19.706 c 0.383,0 0.706,-0.317 0.706,-0.694 v -3.39 h 3.549 c 0.383,0 0.706,-0.317 0.706,-0.694 V 10.729 c 0,-0.196 -0.08,-0.375 -0.219,-0.497 z m -5.804,-3.839 3.63,3.642 h -3.63 z m 4.622,24.123 H 12.981 V 5.399 h 12.271 v 5.33 c 0,0.388 0.315,0.705 0.706,0.705 h 5.327 v 19.082 z"
   id="path55" />
	<path
   display="inline"
   d="M 28.161,19.041 H 15.583 c -0.45,0 -0.817,0.367 -0.817,0.817 0,0.45 0.367,0.816 0.817,0.816 h 12.578 c 0.449,0 0.817,-0.367 0.817,-0.816 10e-4,-0.451 -0.368,-0.817 -0.817,-0.817 z"
   id="path56" />
	<path
   display="inline"
   d="M 28.161,22.672 H 15.583 c -0.45,0 -0.817,0.365 -0.817,0.816 0,0.451 0.367,0.816 0.817,0.816 h 12.578 c 0.449,0 0.817,-0.365 0.817,-0.816 0,-0.451 -0.368,-0.816 -0.817,-0.816 z"
   id="path57" />
	<path
   display="inline"
   d="m 11.5,19.495 h -0.172 c -0.45,0 -0.817,0.367 -0.817,0.816 0,0.451 0.367,0.818 0.817,0.818 H 11.5 Z"
   id="path58" />
	<path
   display="inline"
   d="m 11.5,23.125 h -0.172 c -0.45,0 -0.817,0.367 -0.817,0.816 0,0.451 0.367,0.818 0.817,0.818 H 11.5 Z"
   id="path59" />
	<path
   display="inline"
   d="m 10.511,27.573 c 0,0.45 0.367,0.816 0.817,0.816 H 11.5 v -1.634 h -0.172 c -0.45,0.001 -0.817,0.368 -0.817,0.818 z"
   id="path60" />
</g>
<path
   display="none"
   d="m 35.686494,14.446166 c -0.145,-0.174 -0.359,-0.274 -0.585,-0.274 h -2.286 V 8.2451656 c 0,-0.42 -0.341,-0.762 -0.762,-0.762 H 7.6734939 c -0.421,0 -0.762,0.341 -0.762,0.762 v 3.2790004 h -2.286 c -0.222,0 -0.435,0.097 -0.579,0.267 -0.145,0.169 -0.208,0.394 -0.173,0.614 l 3.048,19.197 c 0.06,0.369 0.377,0.643 0.752,0.643 H 32.053494 c 0.367,0 0.683,-0.264 0.75,-0.625 l 3.048,-16.549 c 0.04,-0.222 -0.019,-0.452 -0.165,-0.625 z M 8.4344939,9.0081656 H 31.291494 v 5.1650004 h -14.991 l -3.621,-2.512 c -0.127,-0.089 -0.277,-0.136 -0.435,-0.136 H 8.4344939 Z M 31.421494,30.720166 H 8.3234939 l -2.805,-17.672 h 6.4870001 l 3.621,2.511 c 0.127,0.089 0.28,0.137 0.435,0.137 h 18.125 z"
   id="path61" />
<path
   display="none"
   d="m 8.8074939,34.864166 c -1.054,0 -2.044,-0.41 -2.789,-1.156 -0.745,-0.744 -1.155,-1.735 -1.155,-2.788 0,-1.053 0.41,-2.044 1.155,-2.788 l 12.5490001,-12.549 -0.896,-3.995 c -0.074,-0.276 0.004,-0.569 0.202,-0.768 l 5.727,-5.7240004 c 0.15,-0.149 0.347,-0.232 0.558,-0.232 0.069,0 0.138,0.009 0.203,0.027 l 4.302,1.153 c 0.271,0.072 0.485,0.285 0.558,0.556 0.072,0.272 -0.006,0.564 -0.203,0.762 l -4.27,4.2710004 0.609,2.497 2.623,0.883 4.383,-4.301 c 0.15,-0.15 0.348,-0.232 0.56,-0.232 0.069,0 0.138,0.009 0.204,0.026 0.271,0.073 0.484,0.288 0.557,0.559 l 1.152,4.302 c 0.074,0.272 -0.004,0.563 -0.203,0.761 l -5.727,5.726 c -0.149,0.15 -0.347,0.231 -0.558,0.231 -0.069,0 -0.138,-0.009 -0.203,-0.027 l -3.673,-0.983 -2.324,2.084 -10.552,10.55 c -0.745,0.745 -1.7360001,1.155 -2.7890001,1.155 z m 10.5050001,-23.25 1.035,3.862 c 0.072,0.271 -0.006,0.563 -0.204,0.761 l -13.0100001,13.009 c -0.447,0.446 -0.694,1.042 -0.694,1.674 0,0.633 0.247,1.227 0.694,1.673 0.449,0.448 1.043,0.695 1.674,0.695 0.632,0 1.2270001,-0.247 1.6740001,-0.695 l 13.009,-13.005 c 0.146,-0.147 0.35,-0.231 0.559,-0.231 0.069,0 0.138,0.009 0.203,0.026 l 3.672,0.983 5.131,-4.89 -0.387,-2.106 -0.154,-0.579 -3.672,3.673 c -0.149,0.149 -0.348,0.231 -0.558,0.231 -0.069,0 -0.138,-0.009 -0.203,-0.026 l -3.521,-0.943 c -0.271,-0.072 -0.484,-0.285 -0.557,-0.556 l -0.943,-3.521 c -0.072,-0.272 0.006,-0.564 0.203,-0.762 l 3.673,-3.6720004 -2.544,-0.68 z"
   id="path62" />
<path
   display="none"
   d="m 35.530494,18.105166 -15.191,-11.0480004 c -0.138,-0.102 -0.303,-0.155 -0.476,-0.155 -0.173,0 -0.337,0.054 -0.477,0.155 l -6.715,4.8840004 v -1.85 c 0,-0.5300004 -0.371,-0.9610004 -0.828,-0.9610004 H 8.1974939 c -0.457,0 -0.828,0.432 -0.828,0.9610004 v 5.706 l -3.173,2.308 c -0.361,0.263 -0.441,0.771 -0.178,1.132 0.151,0.208 0.397,0.332 0.655,0.332 0.172,0 0.336,-0.053 0.477,-0.154 l 2.321,-1.688 v 14.29 c 0,0.447 0.363,0.811 0.81,0.811 h 8.1780001 c 0.447,0 0.81,-0.363 0.81,-0.811 v -9.715 h 5.191 v 9.715 c 0,0.447 0.362,0.811 0.809,0.811 h 8.178 c 0.447,0 0.811,-0.363 0.811,-0.811 v -14.29 l 2.322,1.688 c 0.137,0.101 0.301,0.154 0.475,0.154 0.259,0 0.504,-0.124 0.656,-0.332 0.259,-0.362 0.179,-0.869 -0.181,-1.132 z m -26.5050001,-7.053 h 1.9910001 v 2.092 l -1.9910001,1.448 z m 21.6100001,20.154 h -6.558 v -9.714 c 0,-0.446 -0.363,-0.81 -0.811,-0.81 h -6.809 c -0.447,0 -0.81,0.364 -0.81,0.81 v 9.714 H 9.0914939 v -14.658 l 10.7720001,-7.8340004 10.772,7.8340004 z"
   id="path63" />
<g
   display="none"
   id="g64"
   transform="translate(-0.13650607,-0.1358344)">
	<path
   display="inline"
   d="M 9.196,36 C 8.766,36 8.43,35.662 8.43,35.233 c 0,-0.431 0.336,-0.768 0.766,-0.768 h 2.006 V 10.234 L 11.131,10.213 C 10.464,10.012 9.903,9.625 9.465,9.065 9.029,8.51 8.809,7.864 8.809,7.145 8.809,6.265 9.117,5.515 9.724,4.916 10.337,4.308 11.092,4 11.968,4 c 0.888,0 1.627,0.299 2.26,0.915 0.617,0.604 0.93,1.354 0.93,2.229 0,0.708 -0.226,1.354 -0.672,1.92 -0.449,0.576 -0.998,0.951 -1.681,1.147 l -0.072,0.021 v 0.956 l 10.374,2.568 c 0.359,0.089 0.602,0.397 0.602,0.77 v 2.013 l 9.285,2.478 c 0.355,0.093 0.543,0.315 0.572,0.681 0.027,0.363 -0.113,0.622 -0.417,0.77 l -9.903,4.772 c -0.1,0.066 -0.202,0.098 -0.32,0.098 -0.144,0 -0.285,-0.043 -0.418,-0.125 -0.237,-0.148 -0.348,-0.357 -0.348,-0.656 v -1.558 l -9.426,3.362 v 8.104 h 2.037 c 0.438,0 0.782,0.337 0.782,0.768 0,0.429 -0.343,0.767 -0.782,0.767 H 9.196 Z M 12.734,24.729 22.16,21.37 v -6.242 l -9.426,-2.334 z m 10.975,-1.399 6.888,-3.335 -6.888,-1.85 z M 11.964,5.534 c -0.433,0 -0.836,0.166 -1.137,0.468 -0.625,0.624 -0.625,1.654 -10e-4,2.297 0.297,0.306 0.701,0.474 1.138,0.474 0.437,0 0.848,-0.168 1.16,-0.473 C 13.445,7.988 13.621,7.574 13.618,7.135 13.615,6.702 13.439,6.3 13.123,6 12.808,5.7 12.396,5.534 11.964,5.534 Z"
   id="path64" />
</g>
<path
   display="none"
   d="m 33.197494,11.959166 h -6.857 v -1.143 c 0,-1.9960004 -1.623,-3.6190004 -3.619,-3.6190004 h -5.714 c -1.995,0 -3.619,1.623 -3.619,3.6190004 v 1.143 H 6.5304939 c -1.471,0 -2.667,1.197 -2.667,2.667 v 5.714 9.524 c 0,1.471 1.196,2.666 2.667,2.666 H 33.197494 c 1.471,0 2.666,-1.195 2.666,-2.666 v -9.524 -5.714 c 0,-1.47 -1.195,-2.667 -2.666,-2.667 z m -18.286,-1.143 c 0,-1.1540004 0.94,-2.0950004 2.095,-2.0950004 h 5.714 c 1.155,0 2.095,0.941 2.095,2.0950004 v 1.143 h -9.904 z m -9.5240001,3.81 c 0,-0.631 0.513,-1.143 1.143,-1.143 H 33.197494 c 0.631,0 1.143,0.512 1.143,1.143 v 4.953 H 5.3874939 Z m 19.2380001,6.476 h 3.81 v 2.158 h -3.81 z m -13.332,0 h 3.81 v 2.158 h -3.81 z m 21.904,9.905 H 6.5304939 c -0.63,0 -1.143,-0.514 -1.143,-1.143 v -8.762 h 4.382 v 2.92 c 0,0.422 0.3400001,0.762 0.7620001,0.762 h 5.333 c 0.421,0 0.762,-0.34 0.762,-0.762 v -2.92 h 6.476 v 2.92 c 0,0.422 0.342,0.762 0.762,0.762 h 5.334 c 0.421,0 0.762,-0.34 0.762,-0.762 v -2.92 h 4.381 v 8.762 c -10e-4,0.629 -0.513,1.143 -1.144,1.143 z"
   id="path65" />
<path
   display="none"
   d="M 24.896494,14.291166 V 9.0111656 c 1.936,-0.543 3.324,-2.324 3.324,-4.388 0,-0.42 -0.34,-0.76 -0.76,-0.76 h -15.195 c -0.419,0 -0.76,0.339 -0.76,0.76 0,2.063 1.389,3.844 3.324,4.388 v 5.2800004 c -1.935,0.543 -3.324,2.324 -3.324,4.389 v 1.899 c 0,0.419 0.34,0.759 0.76,0.759 h 5.01 c 0.125,3.184 0.419,6.59 0.821,9.459 0.186,1.328 0.384,2.461 0.572,3.277 0.204,0.88 0.413,1.79 1.195,1.79 0.781,0 0.991,-0.91 1.195,-1.789 0.188,-0.816 0.386,-1.949 0.572,-3.277 0.402,-2.869 0.697,-6.275 0.822,-9.459 h 5.008 c 0.42,0 0.76,-0.34 0.76,-0.759 v -1.899 c 0,-2.066 -1.388,-3.847 -3.324,-4.39 z m -5.033,18.007 c -0.412,-2.4 -0.888,-6.395 -1.068,-10.959 h 2.137 c -0.178,4.564 -0.655,8.558 -1.069,10.959 z m 6.838,-12.478 h -4.982 -3.711 -4.982 v -1.14 c 0,-1.531 1.144,-2.826 2.659,-3.015 0.38,-0.047 0.665,-0.371 0.665,-0.754 V 8.3911656 c 0,-0.383 -0.285,-0.706 -0.665,-0.753 -1.256,-0.156 -2.258,-1.073 -2.563,-2.254 h 13.482 c -0.305,1.181 -1.306,2.098 -2.561,2.254 -0.38,0.047 -0.667,0.371 -0.667,0.753 v 6.5210004 c 0,0.383 0.287,0.707 0.667,0.754 1.516,0.189 2.657,1.484 2.657,3.015 v 1.139 z"
   id="path66" />
<g
   display="none"
   id="g68"
   transform="translate(-0.13650607,-0.1358344)">
	<path
   display="inline"
   d="M 27.758,32.244 34,19.074 V 7.756 H 21.241 V 19.76 h 4.87 l -4.87,12.484 z M 23.146,17.855 V 9.662 h 8.948 v 8.983 l -5.543,11.693 h -2.522 l 4.868,-12.482 h -5.751 z"
   id="path67" />
	<path
   display="inline"
   d="m 12.517,32.244 6.242,-13.17 V 7.756 H 6 V 19.76 h 4.871 L 6,32.244 Z M 7.905,17.855 V 9.662 h 8.948 v 8.983 L 11.311,30.338 H 8.789 L 13.657,17.856 H 7.905 Z"
   id="path68" />
</g>
<g
   display="none"
   id="g70"
   transform="translate(-0.13650607,-0.1358344)">
	<path
   display="inline"
   d="m 23.83,28.146 c -0.414,0 -0.75,0.337 -0.75,0.75 v 5.25 H 8.287 V 5.854 H 23.08 v 5.25 c 0,0.414 0.336,0.75 0.75,0.75 0.414,0 0.75,-0.336 0.75,-0.75 v -6 c 0,-0.414 -0.336,-0.75 -0.75,-0.75 H 7.537 c -0.414,0 -0.75,0.336 -0.75,0.75 v 29.793 c 0,0.415 0.336,0.75 0.75,0.75 H 23.83 c 0.414,0 0.75,-0.335 0.75,-0.75 v -6 c 0,-0.414 -0.336,-0.751 -0.75,-0.751 z"
   id="path69" />
	<path
   display="inline"
   d="m 34.168,24.248 -2.48,-8.688 c -0.08,-0.277 -0.311,-0.484 -0.594,-0.533 -0.285,-0.05 -0.572,0.069 -0.738,0.304 L 29.307,16.8 c -1.635,-1.122 -3.586,-1.735 -5.693,-1.783 -0.02,-10e-4 -0.037,0 -0.057,0.001 -4.104,0.216 -6.771,1.523 -10.574,5.178 -0.258,0.248 -0.305,0.642 -0.115,0.942 0.191,0.302 0.568,0.426 0.902,0.3 1.627,-0.619 3.34,-0.946 4.955,-0.946 1.795,0 4.295,0.403 6.336,2.252 l -0.947,1.327 c -0.162,0.229 -0.186,0.529 -0.057,0.779 0.129,0.25 0.387,0.407 0.668,0.407 h 8.738 v 0 c 0.416,0 0.75,-0.336 0.75,-0.75 0,-0.091 -0.016,-0.178 -0.045,-0.259 z m -7.986,-0.491 0.475,-0.665 c 0.209,-0.292 0.18,-0.692 -0.068,-0.953 -1.961,-2.059 -4.68,-3.147 -7.863,-3.147 -0.754,0 -1.527,0.063 -2.305,0.188 2.352,-1.809 4.373,-2.511 7.188,-2.663 2.041,0.052 3.906,0.717 5.391,1.925 0.162,0.131 0.369,0.189 0.574,0.161 0.205,-0.027 0.391,-0.139 0.51,-0.308 l 0.59,-0.826 1.795,6.288 z"
   id="path70" />
</g>
<path
   display="none"
   d="m 10.950494,35.362166 c -0.655,0 -1.2720001,-0.256 -1.7370001,-0.719 l -4.128,-4.13 c -0.466,-0.464 -0.722,-1.082 -0.722,-1.737 0,-0.656 0.256,-1.274 0.722,-1.738 l 8.3540001,-8.355 c 0.466,-0.464 1.083,-0.719 1.738,-0.719 0.656,0 1.274,0.255 1.736,0.719 l 1.483,1.484 1.771,-1.771 -1.485,-1.482 c -0.463,-0.464 -0.72,-1.082 -0.72,-1.738 0,-0.656 0.257,-1.272 0.72,-1.737 l 8.356,-8.3540004 c 0.463,-0.465 1.08,-0.72 1.737,-0.72 0.657,0 1.274,0.254 1.737,0.72 l 4.13,4.128 c 0.464,0.463 0.72,1.0800004 0.72,1.7370004 0,0.657 -0.256,1.275 -0.72,1.738 l -8.355,8.355 c -0.464,0.465 -1.081,0.72 -1.738,0.72 -0.654,0 -1.272,-0.255 -1.736,-0.72 l -1.483,-1.484 -1.77,1.771 1.483,1.482 c 0.466,0.464 0.72,1.081 0.72,1.736 0,0.656 -0.254,1.273 -0.72,1.738 l -8.354,8.355 c -0.465,0.465 -1.082,0.721 -1.739,0.721 z m 4.226,-15.751 c -0.125,0 -0.365,0.03 -0.571,0.236 l -8.3560001,8.356 c -0.206,0.206 -0.237,0.448 -0.237,0.573 0,0.125 0.031,0.366 0.237,0.572 l 4.1300001,4.13 c 0.207,0.207 0.447,0.237 0.571,0.237 0.125,0 0.367,-0.03 0.573,-0.237 l 8.356,-8.354 c 0.207,-0.207 0.236,-0.448 0.236,-0.574 0,-0.124 -0.029,-0.364 -0.236,-0.57 l -1.483,-1.486 -2.482,2.484 c -0.155,0.156 -0.362,0.242 -0.581,0.242 -0.222,0 -0.428,-0.086 -0.582,-0.242 -0.321,-0.322 -0.321,-0.844 -0.002,-1.163 l 2.484,-2.483 -1.483,-1.483 c -0.208,-0.208 -0.449,-0.238 -0.574,-0.238 z m 9.338,-5.221 c 0.219,0 0.426,0.085 0.58,0.24 0.156,0.156 0.244,0.363 0.244,0.583 0,0.22 -0.088,0.426 -0.242,0.581 l -2.604,2.602 1.485,1.483 c 0.206,0.206 0.446,0.236 0.571,0.236 0.126,0 0.367,-0.03 0.574,-0.235 l 8.354,-8.356 c 0.208,-0.206 0.237,-0.448 0.237,-0.574 0,-0.125 -0.029,-0.365 -0.235,-0.573 l -4.129,-4.1280004 c -0.208,-0.208 -0.449,-0.238 -0.574,-0.238 -0.125,0 -0.367,0.03 -0.573,0.238 l -8.354,8.3540004 c -0.208,0.206 -0.239,0.448 -0.239,0.573 0,0.125 0.031,0.366 0.236,0.573 l 1.483,1.483 2.601,-2.602 c 0.159,-0.154 0.365,-0.24 0.585,-0.24 z"
   id="path71" />
<g
   display="none"
   id="g73"
   transform="translate(-0.13650607,-0.1358344)">
	<path
   display="inline"
   fill-rule="evenodd"
   clip-rule="evenodd"
   d="m 13.786,29.113 c -1.022,0 -1.853,-0.829 -1.853,-1.85 L 11.688,25.784 11.401,23.86 C 11.349,23.672 11.325,23.512 11.325,23.362 L 9.373,9.702 9.035,7.667 H 5.377 C 4.894,7.667 4.5,7.274 4.5,6.791 4.5,6.309 4.894,5.916 5.377,5.916 h 3.899 c 0.056,0 0.111,0.014 0.169,0.03 L 9.47,5.952 9.545,5.959 C 9.652,5.93 9.708,5.915 9.763,5.915 c 0.484,0 0.878,0.393 0.878,0.875 l 0.186,1.122 0.097,-0.017 c 0.099,-0.017 0.199,-0.033 0.304,-0.033 h 22.421 c 1.021,0 1.852,0.831 1.852,1.853 v 11.699 c 0,1.021 -0.83,1.851 -1.852,1.851 -0.092,10e-4 -9.072,0.071 -14.472,0.638 -2.596,0.273 -5.058,1.01 -5.75,1.229 l -0.079,0.025 0.329,2.203 h 18.997 c 0.482,0 0.877,0.394 0.877,0.877 0,0.483 -0.395,0.876 -0.877,0.876 z M 12.445,9.618 c -0.592,0 -1.073,0.48 -1.073,1.071 l 1.626,11.387 c -10e-4,0.578 0.481,1.059 1.074,1.059 0.054,-0.015 1.638,-0.682 4.483,-1.018 4.797,-0.565 14.026,-0.605 14.12,-0.605 0.59,0 1.072,-0.48 1.072,-1.073 v -9.75 c 0,-0.59 -0.482,-1.071 -1.072,-1.071 z"
   id="path72" />
	<path
   display="inline"
   fill-rule="evenodd"
   clip-rule="evenodd"
   d="m 15.948,30.188 c -1.076,0 -1.948,0.872 -1.948,1.949 0,1.076 0.872,1.948 1.948,1.948 1.079,0 1.951,-0.872 1.951,-1.948 0,-1.077 -0.872,-1.949 -1.951,-1.949 z"
   id="path73" />
	<circle
   display="inline"
   fill-rule="evenodd"
   clip-rule="evenodd"
   cx="29.598"
   cy="32.136002"
   r="1.949"
   id="circle73" />
</g>
<path
   display="none"
   fill="#010101"
   d="m 31.863494,10.329166 c 0,-0.9480004 -0.66,-2.2950004 -3.808,-3.3370004 -2.199,-0.728 -5.108,-1.128 -8.192,-1.128 -3.083,0 -5.993,0.4 -8.192,1.128 -3.1470001,1.041 -3.8080001,2.389 -3.8080001,3.3370004 0,0.008 0,0.014 0.001,0.022 0,0.004 -0.001,0.008 -0.001,0.009 v 6.326 c 0,0.007 0,0.014 0.001,0.023 0,0.003 -0.001,0.006 -0.001,0.008 v 6.325 c 0,0.008 0,0.016 0.001,0.023 0,0.003 -0.001,0.007 -0.001,0.01 v 6.324 c 0,0.947 0.661,2.295 3.8080001,3.337 2.199,0.728 5.109,1.128 8.192,1.128 3.084,0 5.993,-0.4 8.192,-1.128 3.148,-1.042 3.808,-2.39 3.808,-3.337 v -6.324 c 0,-0.003 0,-0.007 0,-0.01 0,-0.008 0,-0.016 0,-0.023 v -6.325 c 0,-0.002 0,-0.005 0,-0.008 0,-0.009 0,-0.016 0,-0.023 v -6.326 c 0,-10e-4 0,-0.005 0,-0.009 0,-0.008 0,-0.014 0,-0.022 z m -1.5,19.07 c 0,1.215 -4.09,2.977 -10.5,2.977 -6.41,0 -10.5000001,-1.762 -10.5000001,-2.977 v -4.052 c 0.557,0.371 1.3060001,0.732 2.3080001,1.063 2.199,0.729 5.109,1.129 8.192,1.129 3.084,0 5.993,-0.4 8.192,-1.129 1.001,-0.331 1.751,-0.692 2.308,-1.063 z m 0,-6.357 c 0,1.214 -4.09,2.977 -10.5,2.977 -6.41,0 -10.5000001,-1.763 -10.5000001,-2.977 v -4.052 c 0.557,0.371 1.3060001,0.733 2.3080001,1.065 2.199,0.728 5.109,1.127 8.192,1.127 3.084,0 5.993,-0.4 8.192,-1.127 1.001,-0.332 1.751,-0.694 2.308,-1.065 z m 0,-6.356 c 0,1.213 -4.09,2.975 -10.5,2.975 -6.41,0 -10.5000001,-1.762 -10.5000001,-2.975 v -4.053 c 0.557,0.371 1.3060001,0.733 2.3080001,1.065 2.199,0.728 5.109,1.128 8.192,1.128 3.084,0 5.993,-0.4 8.192,-1.128 1.001,-0.332 1.751,-0.694 2.308,-1.065 z m -10.5,-3.382 c -6.41,0 -10.5000001,-1.762 -10.5000001,-2.975 0,-1.2140004 4.0900001,-2.9760004 10.5000001,-2.9760004 6.41,0 10.5,1.762 10.5,2.9760004 0,1.213 -4.09,2.975 -10.5,2.975 z"
   id="path74" />
<path
   display="none"
   fill="#010101"
   d="m 30.863494,9.8641656 v -3.333 c 0,-0.368 -0.353,-0.667 -0.786,-0.667 H 9.6484939 c -0.432,0 -0.785,0.299 -0.785,0.667 v 3.333 c 0,0.3690004 0.353,0.6670004 0.785,0.6670004 h 1.1790001 v 0.996 c 0,3.418 2.296,6.533 5.893,8.052 v 0.569 c -3.596,1.518 -5.893,4.629 -5.893,8.049 v 1.002 H 9.6484939 c -0.432,-0.001 -0.785,0.298 -0.785,0.664 v 3.335 c 0,0.368 0.353,0.666 0.785,0.666 H 30.077494 c 0.433,0 0.786,-0.298 0.786,-0.666 v -3.335 c 0,-0.366 -0.353,-0.665 -0.786,-0.665 h -1.179 v -1.002 c 0,-3.42 -2.297,-6.533 -5.896,-8.051 v -0.565 c 3.599,-1.518 5.896,-4.632 5.896,-8.054 v -0.996 h 1.179 c 0.433,0.001 0.786,-0.297 0.786,-0.6660004 z m -2.428,20.6660004 h 0.855 v 2 h -18.856 v -2 h 1.179 16.5 z m -1.392,-17.1 c -0.148,0.574 -0.566,1.333 -0.566,1.333 -0.914,1.655 -2.516,3.018 -4.575,3.783 -0.286,0.106 -0.47,0.346 -0.47,0.611 v 1.413 c 0,0.265 0.184,0.504 0.47,0.611 3.296,1.226 5.427,3.979 5.427,7.016 v 1.003 h -0.686 -2.015 -9.532 -1.998 -0.7 v -1.002 c 0,-3.037 2.13,-5.789 5.423,-7.016 0.286,-0.105 0.47,-0.344 0.47,-0.609 v -1.419 c 0,-0.264 -0.184,-0.503 -0.47,-0.61 -2.057,-0.766 -3.658,-2.127 -4.572,-3.782 -0.344,-0.56 -0.565,-1.333 -0.565,-1.333 -0.187,-0.613 -0.286,-1.252 -0.286,-1.903 v -0.985 h 14.93 v 0.985 c 0,0.651 -0.1,1.291 -0.285,1.904 z m 2.248,-4.2330004 h -1.178 c -0.046,0 -0.09,0.004 -0.134,0.01 h -16.233 c -0.043,-0.006 -0.087,-0.01 -0.133,-0.01 h -1.179 v -2 h 18.856 v 2 z"
   id="path75" />
<path
   display="none"
   fill="#010101"
   d="M 28.975494,30.791166 H 9.7394939 c -3.791,0 -6.876,-3.085 -6.876,-6.876 0,-3.617 2.806,-6.591 6.356,-6.858 0.77,-2.392 3.0210001,-4.066 5.5830001,-4.066 0.369,0 0.744,0.041 1.133,0.125 1.362,-2.559 4.023,-4.1770004 6.963,-4.1770004 3.729,0 6.934,2.6590004 7.688,6.2760004 3.619,0.754 6.277,3.96 6.277,7.688 0,4.35 -3.538,7.888 -7.888,7.888 z m -19.2790001,-12.136 c -2.879,0.024 -5.215,2.375 -5.215,5.26 0,2.898 2.359,5.258 5.258,5.258 H 28.975494 c 3.457,0 6.271,-2.813 6.271,-6.27 0,-3.122 -2.35,-5.78 -5.466,-6.185 -0.364,-0.048 -0.651,-0.334 -0.698,-0.699 -0.404,-3.115 -3.063,-5.463 -6.184,-5.463 -2.527,0 -4.794,1.504 -5.779,3.831 -0.163,0.387 -0.596,0.584 -0.996,0.453 -0.48,-0.156 -0.912,-0.232 -1.32,-0.232 -2.018,0 -3.769,1.434 -4.164,3.409 -0.076,0.377 -0.408,0.65 -0.7930001,0.65 -0.062,0 -0.114,-0.007 -0.15,-0.012 z"
   id="path76" />
<g
   display="none"
   id="g78"
   transform="translate(-0.13650607,-0.1358344)">
	<path
   display="inline"
   fill="#010101"
   d="m 29.364,15.71 c -0.431,0 -0.78,0.35 -0.78,0.78 v 3.901 c 0,4.733 -3.851,8.585 -8.584,8.585 -4.733,0 -8.585,-3.852 -8.585,-8.585 V 16.49 c 0,-0.431 -0.35,-0.78 -0.78,-0.78 -0.432,0 -0.78,0.35 -0.78,0.78 v 3.901 c 0,5.331 4.134,9.716 9.365,10.116 v 3.932 h -5.463 c -0.432,0 -0.781,0.349 -0.781,0.78 0,0.431 0.35,0.78 0.781,0.78 h 12.486 c 0.431,0 0.78,-0.35 0.78,-0.78 0,-0.432 -0.35,-0.78 -0.78,-0.78 H 20.78 v -3.932 c 5.23,-0.4 9.365,-4.785 9.365,-10.116 V 16.49 c 0.001,-0.43 -0.349,-0.78 -0.781,-0.78 z"
   id="path77" />
	<path
   display="inline"
   fill="#010101"
   d="m 20,27.025 c 3.657,0 6.633,-2.975 6.633,-6.633 v -9.76 C 26.633,6.976 23.657,4 20,4 16.343,4 13.367,6.976 13.367,10.633 v 9.76 c 0,3.658 2.976,6.632 6.633,6.632 z M 14.928,10.633 c 0,-2.797 2.275,-5.072 5.072,-5.072 2.797,0 5.072,2.275 5.072,5.072 v 9.76 c 0,2.797 -2.275,5.072 -5.072,5.072 -2.797,0 -5.072,-2.275 -5.072,-5.072 z"
   id="path78" />
</g>
<g
   display="none"
   id="g85"
   transform="translate(-0.13650607,-0.1358344)">
	<path
   display="inline"
   fill="#010101"
   d="m 22.603,19.604 c 1.136,-0.807 1.88,-2.131 1.88,-3.626 0,-2.452 -1.994,-4.446 -4.444,-4.446 -2.451,0 -4.445,1.994 -4.445,4.446 0,1.495 0.745,2.82 1.881,3.627 l -5.008,14.432 c -0.132,0.378 0.068,0.791 0.447,0.924 0.077,0.025 0.158,0.039 0.236,0.039 0.3,0 0.581,-0.188 0.684,-0.488 l 1.02,-2.933 h 10.37 l 1.017,2.933 c 0.103,0.301 0.385,0.488 0.686,0.488 0.078,0 0.157,-0.014 0.237,-0.039 0.378,-0.133 0.578,-0.546 0.446,-0.924 z m -2.565,-6.613 c 1.646,0 2.986,1.34 2.986,2.987 0,1.646 -1.34,2.986 -2.986,2.986 -1.647,0 -2.986,-1.34 -2.986,-2.986 0,-1.647 1.339,-2.987 2.986,-2.987 z m 0,7.432 c 0.435,0 0.854,-0.064 1.252,-0.181 l 1.603,4.622 h -5.709 l 1.604,-4.622 c 0.397,0.117 0.816,0.181 1.25,0.181 z m -4.682,9.706 1.324,-3.814 h 6.715 l 1.325,3.814 z"
   id="path79" />
	<path
   display="inline"
   fill="#010101"
   d="m 14.12,21.617 c 0.142,0.142 0.327,0.212 0.511,0.212 0.187,0 0.373,-0.07 0.515,-0.212 0.282,-0.283 0.282,-0.743 0,-1.025 -1.234,-1.231 -1.913,-2.87 -1.913,-4.613 0,-1.743 0.678,-3.381 1.911,-4.613 0.282,-0.283 0.282,-0.742 0,-1.026 -0.285,-0.282 -0.743,-0.282 -1.025,0 -1.507,1.506 -2.336,3.508 -2.336,5.639 -10e-4,2.129 0.829,4.132 2.337,5.638 z"
   id="path80" />
	<path
   display="inline"
   fill="#010101"
   d="m 12.581,23.154 c -1.919,-1.916 -2.974,-4.465 -2.974,-7.176 0,-2.71 1.055,-5.259 2.973,-7.178 0.283,-0.283 0.283,-0.742 0,-1.025 -0.284,-0.283 -0.743,-0.282 -1.025,10e-4 -2.191,2.191 -3.398,5.104 -3.398,8.202 0,3.098 1.208,6.011 3.4,8.202 0.142,0.142 0.326,0.212 0.512,0.212 0.186,0 0.372,-0.07 0.513,-0.212 0.282,-0.284 0.282,-0.742 -0.001,-1.026 z"
   id="path81" />
	<path
   display="inline"
   fill="#010101"
   d="m 5.982,15.979 c 0,-3.678 1.432,-7.137 4.034,-9.741 0.283,-0.283 0.283,-0.742 0,-1.025 -0.283,-0.283 -0.743,-0.283 -1.025,0 -2.876,2.877 -4.46,6.7 -4.46,10.766 0,4.065 1.584,7.889 4.46,10.766 0.142,0.141 0.327,0.211 0.513,0.211 0.186,0 0.372,-0.07 0.513,-0.211 0.283,-0.284 0.283,-0.744 0,-1.026 -2.602,-2.604 -4.035,-6.063 -4.035,-9.74 z"
   id="path82" />
	<path
   display="inline"
   fill="#010101"
   d="m 26.768,15.979 c 0,1.742 -0.679,3.38 -1.911,4.612 -0.282,0.282 -0.282,0.741 0,1.024 0.142,0.142 0.328,0.213 0.514,0.213 0.185,0 0.37,-0.071 0.512,-0.213 1.507,-1.506 2.337,-3.508 2.337,-5.637 0,-2.131 -0.831,-4.134 -2.338,-5.64 -0.283,-0.283 -0.741,-0.282 -1.026,0 -0.282,0.283 -0.282,0.742 10e-4,1.025 1.232,1.233 1.911,2.872 1.911,4.616 z"
   id="path83" />
	<path
   display="inline"
   fill="#010101"
   d="M 28.445,7.775 C 28.16,7.492 27.701,7.493 27.419,7.776 c -0.284,0.283 -0.284,0.742 0,1.024 1.917,1.917 2.973,4.466 2.973,7.178 0,2.709 -1.055,5.258 -2.971,7.178 -0.284,0.282 -0.284,0.74 0,1.024 0.142,0.142 0.328,0.212 0.513,0.212 0.186,0 0.372,-0.07 0.513,-0.212 2.19,-2.192 3.397,-5.105 3.397,-8.202 0,-3.099 -1.208,-6.012 -3.399,-8.203 z"
   id="path84" />
	<path
   display="inline"
   fill="#010101"
   d="m 31.007,5.212 c -0.282,-0.282 -0.741,-0.282 -1.025,0 -0.283,0.283 -0.283,0.743 0,1.025 2.603,2.603 4.037,6.063 4.037,9.741 0,3.677 -1.434,7.136 -4.035,9.74 -0.283,0.283 -0.283,0.741 0,1.025 0.141,0.141 0.327,0.211 0.513,0.211 0.185,0 0.371,-0.07 0.513,-0.211 2.876,-2.879 4.459,-6.701 4.459,-10.766 C 35.468,11.912 33.884,8.089 31.007,5.212 Z"
   id="path85" />
</g>
<g
   display="none"
   id="g86"
   transform="translate(-0.13650607,-0.1358344)">
	<path
   display="inline"
   fill="#010101"
   d="m 26.197,5 c -4.854,0 -8.803,3.948 -8.803,8.802 0,0.704 0.084,1.402 0.249,2.082 L 5,28.554 V 35 h 6.979 v -3.542 h 3.542 v -3.542 h 3.541 v -3.541 h 3.056 l 2.014,-2.016 c 0.674,0.163 1.367,0.244 2.066,0.244 4.853,0 8.803,-3.947 8.803,-8.801 C 35,8.949 31.05,5 26.197,5 Z m 0,15.938 c -0.705,0 -1.403,-0.103 -2.074,-0.307 l -0.476,-0.144 -2.223,2.221 h -4.03 v 3.542 h -3.541 v 3.541 h -3.541 v 3.542 H 6.667 V 29.242 L 19.518,16.367 19.372,15.888 c -0.205,-0.674 -0.311,-1.376 -0.311,-2.086 0,-3.935 3.2,-7.136 7.136,-7.136 3.935,0 7.135,3.201 7.135,7.136 0,3.935 -3.2,7.136 -7.135,7.136 z"
   id="path86" />
	<circle
   display="inline"
   fill="#010101"
   cx="27.671"
   cy="12.348"
   r="1.666"
   id="circle86" />
</g>
<path
   display="none"
   fill="#040305"
   d="M 5.6754939,35.364166 V 6.9921656 h 6.3170001 v -2.628 h 1.594 v 2.628 h 12.402 v -2.628 h 1.604 v 2.628 h 6.458 V 35.364166 Z m 26.7720001,-1.604 v -19.27 H 7.2794939 v 19.269 H 32.447494 Z m 0,-20.874 V 8.5971656 h -4.854 v 1.6750004 h -1.604 V 8.5971656 h -12.403 v 1.6750004 h -1.594 V 8.5971656 H 7.2794939 v 4.2890004 z"
   id="path87" />
<path
   display="none"
   fill-rule="evenodd"
   clip-rule="evenodd"
   d="m 22.535494,29.059166 -7.148,3.457 c -0.331,-0.021 -0.63,-0.235 -0.951,-0.766 L 4.8634939,6.8491656 c 0.013,-0.354 0.356,-0.697 0.778,-0.697 L 34.599494,21.990166 c 0.131,0.141 0.304,0.615 0.256,0.94 -0.018,0.122 -0.063,0.202 -0.135,0.239 l -6.256,3.024 v 5.654 c 0,0.926 -0.731,1.685 -1.646,1.726 z m 1.06,-0.506 2.346,2.471 c 0.339,0.345 0.504,0.492 0.673,0.492 h 0.001 c 0.115,0 0.261,-0.062 0.297,-0.363 0.016,-0.135 0.018,-0.341 0.018,-0.622 v -3.22 l 0.012,-0.011 0.012,-0.133 -0.014,-0.102 -0.007,-0.004 -0.003,-0.651 -0.003,0.002 c 0.008,-0.487 0.029,-1.026 0.029,-1.026 l 0.005,-0.103 -8.106,-5.941 -0.256,0.283 5.957,6.661 0.036,-0.019 0.786,0.937 0.293,0.328 z M 8.9834939,9.8591656 c -0.448,0 -0.812,0.3630004 -0.812,0.8110004 l 7.1750001,18.895 c 0.195,0.325 0.464,0.665 0.957,0.665 l 6.112,-2.922 0.146,-0.038 1.488,-0.735 -9.567,-10.689 13.229,8.908 3.224,-1.551 c 0.103,-0.054 0.224,-0.163 0.259,-0.392 0.043,-0.292 -0.086,-0.704 -0.281,-0.898 L 9.0324939,9.8591656 Z"
   id="path88" />
<path
   display="none"
   d="M 34.148494,9.8641656 H 5.5774939 c -0.394,0 -0.714,0.3190004 -0.714,0.7140004 v 18.571 c 0,0.395 0.32,0.715 0.714,0.715 H 34.148494 c 0.396,0 0.715,-0.32 0.715,-0.715 v -18.571 c 0,-0.395 -0.319,-0.7140004 -0.715,-0.7140004 z m -27.8560001,2.2690004 8.8180001,7.068 -8.8180001,8.124 z m 13.5710001,9.049 -12.3350001,-9.89 H 32.199494 Z m -3.626,-1.077 3.178,2.548 c 0.001,0 0.003,0.002 0.004,0.002 0.007,0.006 0.015,0.012 0.021,0.017 0.013,0.009 0.025,0.019 0.038,0.026 0.008,0.006 0.016,0.01 0.024,0.015 0.014,0.009 0.029,0.017 0.043,0.024 0.007,0.002 0.013,0.006 0.019,0.01 0.022,0.009 0.045,0.018 0.067,0.025 0.001,0 0.002,0 0.003,0.002 0.021,0.006 0.044,0.014 0.066,0.017 0.006,0.002 0.011,0.004 0.017,0.004 0.019,0.005 0.037,0.007 0.056,0.009 0.005,0.002 0.012,0.002 0.017,0.002 0.024,0.004 0.047,0.006 0.071,0.006 v 0 0 c 0.024,0 0.048,-0.002 0.072,-0.006 0.005,0 0.011,0 0.016,-0.002 0.02,-0.002 0.039,-0.004 0.057,-0.009 0.006,0 0.012,-0.002 0.017,-0.004 0.022,-0.003 0.044,-0.011 0.066,-0.017 0.001,-0.002 0.002,-0.002 0.003,-0.002 0.023,-0.008 0.045,-0.017 0.067,-0.025 0.007,-0.004 0.013,-0.008 0.019,-0.01 0.015,-0.008 0.029,-0.016 0.045,-0.024 0.008,-0.005 0.016,-0.009 0.023,-0.015 0.012,-0.008 0.025,-0.018 0.037,-0.026 0.008,-0.005 0.016,-0.011 0.022,-0.017 0.001,0 0.003,-0.002 0.004,-0.002 l 3.178,-2.548 9.043,8.33 H 7.1954939 Z m 8.38,-0.904 8.817,-7.068 v 15.175 z"
   id="path89" />
<g
   display="none"
   id="g91"
   transform="translate(-0.13650607,-0.1358344)">
	<g
   display="inline"
   id="g90">
		<path
   d="M 20.01,5.5 C 12.008,5.5 5.5,12.005 5.5,20 c 0,7.997 6.508,14.5 14.51,14.5 2.701,0 5.34,-0.75 7.633,-2.166 0.209,-0.13 0.354,-0.332 0.408,-0.568 0.057,-0.238 0.016,-0.481 -0.112,-0.689 -0.17,-0.273 -0.462,-0.438 -0.782,-0.438 -0.168,0 -0.333,0.049 -0.477,0.138 -2,1.239 -4.307,1.895 -6.67,1.895 -6.99,0 -12.677,-5.687 -12.677,-12.67 0,-6.984 5.687,-12.667 12.677,-12.667 4.227,0 8.162,2.095 10.525,5.603 1.17,1.739 1.895,3.758 2.094,5.841 0.047,0.494 0.152,2.249 -0.475,4.098 -0.588,1.732 -2.268,2.978 -3.943,2.903 -1.047,-0.038 -1.807,-0.407 -2.326,-1.126 -1.666,-2.338 -0.511,-7.771 0.074,-9.666 0.145,-0.472 -0.105,-0.969 -0.571,-1.134 -0.199,-0.069 -2.062,-0.694 -4.348,-0.694 -1.554,0 -2.929,0.292 -4.088,0.863 -1.801,0.888 -3.064,2.42 -3.755,4.554 -0.87,2.684 -0.403,5.274 1.249,6.928 0.991,0.993 2.305,1.537 3.696,1.537 0.549,0 1.096,-0.086 1.624,-0.258 1.015,-0.323 1.929,-0.933 2.718,-1.811 l 0.923,-1.025 0.649,1.216 c 0.101,0.189 0.213,0.371 0.332,0.54 0.846,1.189 2.148,1.846 3.767,1.904 0.063,0.002 0.124,0.002 0.186,0.002 2.401,0 4.737,-1.742 5.552,-4.148 0.723,-2.141 0.635,-4.112 0.563,-4.858 C 34.227,16.216 33.397,13.905 32.06,11.916 29.349,7.898 24.846,5.5 20.01,5.5 Z m -1.871,19.714 v 0 c -0.901,0 -1.752,-0.356 -2.397,-1.003 -1.173,-1.176 -1.466,-3.023 -0.804,-5.069 0.538,-1.658 1.456,-2.794 2.808,-3.473 0.922,-0.459 2.026,-0.69 3.285,-0.69 0.688,0 1.834,0.153 1.883,0.158 l 0.981,0.133 -0.156,0.979 c -0.013,0.078 -0.317,1.959 -0.844,4.058 -0.604,2.413 -1.983,4.186 -3.69,4.737 -0.352,0.113 -0.71,0.17 -1.066,0.17 z"
   id="path90" />
	</g>
</g>
<path
   display="none"
   d="m 34.812494,21.468166 -4.868,-13.4820004 c -0.106,-0.297 -0.39,-0.496 -0.706,-0.496 h -18.75 c -0.315,0 -0.5980001,0.199 -0.7050001,0.496 l -4.869,13.4820004 c -0.032,0.084 -0.05,0.173 -0.051,0.267 v 0 c 0,0.002 0,0.002 0,0.002 v 0 0 0.002 0 9.749 c 0,0.414 0.336,0.75 0.75,0.75 H 34.113494 c 0.415,0 0.75,-0.336 0.75,-0.75 v -9.749 0 -0.002 0 0 c 0,0 0,0 0,-0.002 v 0 c 0,-0.094 -0.018,-0.183 -0.051,-0.267 z m -23.798,-12.4790004 h 17.699 l 4.333,12.0000004 h -1.682 l -2.024,-6.004 c -0.104,-0.305 -0.389,-0.51 -0.711,-0.51 h -17.056 c -0.314,0 -0.596,0.197 -0.704,0.492 l -2.2070001,6.022 h -1.98 z m 18.767,12.0000004 h -4.293 c -0.283,0 -0.543,0.16 -0.67,0.414 l -1.668,3.336 h -6.573 l -1.668,-3.336 c -0.127,-0.254 -0.387,-0.414 -0.671,-0.414 h -3.978 l 1.837,-5.014 h 15.992 z m 3.582,9.749 H 6.3634939 v -8.249 h 7.4120001 l 1.668,3.335 c 0.127,0.254 0.387,0.414 0.67,0.414 h 7.5 c 0.285,0 0.545,-0.16 0.672,-0.414 l 1.668,-3.335 h 7.41 z"
   id="path91" />
<g
   display="none"
   id="g94"
   transform="translate(-0.13650607,-0.1358344)">
	<path
   display="inline"
   d="m 20,21.569 c -0.095,0 -0.189,-0.021 -0.282,-0.062 L 5.434,15.115 C 5.165,14.995 4.994,14.72 5,14.413 5.006,14.11 5.191,13.835 5.46,13.73 L 19.746,8.049 C 19.828,8.017 19.913,8 20,8 c 0.086,0 0.172,0.017 0.254,0.049 l 14.285,5.679 c 0.275,0.11 0.455,0.378 0.461,0.683 0.008,0.308 -0.163,0.584 -0.434,0.704 L 20.281,21.51 C 20.192,21.549 20.096,21.569 20,21.569 Z M 7.626,14.468 19.965,19.99 32.374,14.468 20,9.549 Z"
   id="path92" />
	<path
   display="inline"
   d="M 5.434,20.49 C 5.073,20.327 4.904,19.886 5.058,19.507 5.171,19.232 5.43,19.053 5.717,19.053 c 0.097,0 0.191,0.021 0.282,0.062 l 13.967,6.249 14.037,-6.249 c 0.092,-0.042 0.186,-0.062 0.283,-0.062 0.286,0 0.544,0.177 0.656,0.454 0.155,0.379 -0.014,0.82 -0.376,0.983 L 20,27.008 Z"
   id="path93" />
	<path
   display="inline"
   d="M 5.434,25.48 C 5.072,25.316 4.903,24.876 5.058,24.499 5.171,24.224 5.43,24.045 5.717,24.045 c 0.097,0 0.191,0.021 0.282,0.061 l 13.967,6.25 14.037,-6.25 c 0.09,-0.039 0.186,-0.061 0.283,-0.061 0.286,0 0.544,0.179 0.656,0.454 0.155,0.378 -0.014,0.819 -0.375,0.981 L 20,32 Z"
   id="path94" />
</g>
<g
   display="none"
   id="g95"
   transform="translate(-0.13650607,-0.1358344)">
	<path
   display="inline"
   d="M 21.768,34 C 21.58,34 21.402,33.927 21.266,33.792 L 6.207,18.733 C 6.075,18.6 5.999,18.416 5.999,18.23 L 6.041,6.707 C 6.042,6.317 6.361,6 6.751,6 L 18.23,6.002 c 0.19,0 0.368,0.072 0.504,0.207 l 15.059,15.059 c 0.133,0.135 0.208,0.313 0.208,0.503 0,0.188 -0.075,0.366 -0.21,0.501 L 22.27,33.792 C 22.136,33.927 21.957,34 21.768,34 Z M 7.42,17.866 21.767,32.289 32.288,21.77 17.988,7.472 7.457,7.417 Z"
   id="path95" />
	<circle
   display="inline"
   cx="11.78"
   cy="11.777"
   r="1.33"
   id="circle95" />
</g>
<g
   display="none"
   id="g97"
   transform="translate(-0.13650607,-0.1358344)">
	<path
   display="inline"
   fill-rule="evenodd"
   clip-rule="evenodd"
   d="m 10.738,35.5 c -0.462,0 -0.531,-0.451 -0.531,-0.721 V 6.297 c 0,-0.991 0.806,-1.797 1.797,-1.797 h 15.99 c 0.992,0 1.799,0.806 1.799,1.797 v 28.482 c 0,0.229 -0.056,0.408 -0.16,0.521 -0.093,0.1 -0.225,0.15 -0.391,0.15 v 0 c -0.34,0 -0.754,-0.211 -1.106,-0.563 l -8.137,-8.138 -8.137,8.138 c -0.389,0.39 -0.799,0.613 -1.124,0.613 z m 16.116,-3.826 c 0.241,0.24 0.491,0.367 0.723,0.367 0.363,0 0.618,-0.313 0.618,-0.76 V 7.297 c 0,-0.662 -0.538,-1.198 -1.199,-1.198 h -13.99 c -0.662,0 -1.201,0.537 -1.201,1.198 v 23.984 c 0,0.209 0.054,0.391 0.154,0.525 0.113,0.15 0.278,0.234 0.466,0.234 0.23,0 0.48,-0.127 0.722,-0.367 l 6.854,-6.855 z"
   id="path96" />
	<path
   display="inline"
   fill-rule="evenodd"
   clip-rule="evenodd"
   d="m 25.791,15.35 c -0.004,0 -0.006,-0.006 -0.012,-0.008 -0.053,-0.023 -0.111,-0.039 -0.176,-0.039 -0.023,0 -0.041,0.01 -0.063,0.012 -1.507,-0.037 -3.844,-0.098 -3.844,-0.098 0,0 -0.795,-2.249 -1.296,-3.666 -0.012,-0.037 -0.027,-0.068 -0.047,-0.1 -0.021,-0.041 -0.043,-0.07 -0.064,-0.082 -0.076,-0.07 -0.176,-0.117 -0.287,-0.117 -0.111,0 -0.213,0.047 -0.287,0.117 -0.021,0.012 -0.041,0.041 -0.063,0.082 -0.021,0.031 -0.037,0.063 -0.049,0.1 -0.501,1.417 -1.296,3.666 -1.296,3.666 0,0 -2.339,0.061 -3.842,0.098 -0.023,-0.002 -0.043,-0.012 -0.066,-0.012 -0.063,0 -0.119,0.016 -0.176,0.039 -0.004,0.002 -0.004,0.008 -0.01,0.008 -0.138,0.068 -0.237,0.21 -0.237,0.376 0,0.084 0.031,0.156 0.072,0.223 0,0 0,0 0.002,0 0.035,0.059 0.081,0.102 0.138,0.137 1.195,0.916 3.071,2.354 3.071,2.354 0,0 -0.662,2.239 -1.092,3.681 -0.035,0.061 -0.059,0.127 -0.059,0.199 0,0.236 0.191,0.428 0.424,0.428 0.127,0 0.238,-0.059 0.314,-0.146 0.303,-0.207 0.644,-0.441 0.989,-0.68 L 20,20.433 l 2.167,1.489 c 0.346,0.238 0.685,0.473 0.987,0.68 0.078,0.088 0.188,0.146 0.313,0.146 0.234,0 0.424,-0.191 0.424,-0.428 0,-0.072 -0.023,-0.139 -0.055,-0.199 -0.43,-1.442 -1.096,-3.681 -1.096,-3.681 0,0 1.878,-1.438 3.073,-2.354 0.057,-0.035 0.105,-0.078 0.138,-0.137 0.043,-0.066 0.072,-0.139 0.072,-0.223 0.003,-0.165 -0.093,-0.308 -0.232,-0.376 z m -4.363,2.581 0.754,2.533 -2.179,-1.499 -2.181,1.499 0.754,-2.533 -2.099,-1.611 2.644,-0.066 0.882,-2.497 0.88,2.497 2.647,0.066 z"
   id="path97" />
</g>
<path
   display="none"
   d="m 29.250494,34.850166 c -0.145,0 -0.289,-0.037 -0.416,-0.112 l -8.971,-5.33 -8.977,5.33 c -0.124,0.075 -0.267,0.112 -0.412,0.112 -0.174,0 -0.34,-0.053 -0.4810001,-0.158 -0.262,-0.191 -0.383,-0.521 -0.307,-0.84 l 2.3890001,-10 -7.9260001,-6.717 c -0.251,-0.213 -0.348,-0.554 -0.246,-0.866 0.101,-0.313 0.377,-0.532 0.704,-0.56 l 10.4500001,-0.862 4.062,-9.4790004 c 0.127,-0.296 0.419,-0.49 0.744,-0.49 0.324,0 0.617,0.194 0.746,0.493 l 4.06,9.4770004 10.45,0.862 c 0.329,0.028 0.605,0.247 0.706,0.56 0.1,0.314 0.003,0.653 -0.248,0.864 l -7.928,6.719 2.389,10.002 c 0.076,0.316 -0.046,0.646 -0.309,0.838 -0.141,0.105 -0.307,0.157 -0.479,0.157 z m -12.898,-18.917 c -0.117,0.277 -0.377,0.464 -0.677,0.488 l -8.9860001,0.742 6.8130001,5.773 c 0.232,0.199 0.334,0.508 0.264,0.807 l -2.06,8.624 7.744,-4.599 c 0.123,-0.073 0.266,-0.113 0.412,-0.113 0.146,0 0.289,0.04 0.412,0.113 l 7.742,4.599 -2.06,-8.624 c -0.071,-0.299 0.029,-0.607 0.265,-0.807 l 6.814,-5.773 -8.988,-0.742 c -0.3,-0.024 -0.56,-0.211 -0.677,-0.486 l -3.507,-8.1890004 z"
   id="path98" />
<g
   display="none"
   id="g101"
   transform="translate(-0.13650607,-0.1358344)">
	<path
   display="inline"
   d="M 33.125,35 H 6.875 C 6.356,35 5.937,34.579 5.937,34.062 v -5.75 c 0,-0.519 0.419,-0.938 0.938,-0.938 0.518,0 0.938,0.42 0.938,0.938 v 4.813 h 24.375 v -4.813 c 0,-0.519 0.419,-0.938 0.938,-0.938 0.518,0 0.938,0.42 0.938,0.938 v 5.75 C 34.063,34.579 33.643,35 33.125,35"
   id="path99" />
	<path
   display="inline"
   d="m 27.576,14.153 c -0.234,0 -0.47,-0.087 -0.651,-0.264 L 20.041,7.24 13.157,13.889 c -0.371,0.36 -0.965,0.351 -1.325,-0.021 -0.359,-0.374 -0.349,-0.966 0.024,-1.326 l 7.535,-7.277 c 0.362,-0.354 0.939,-0.354 1.301,0 l 7.535,7.277 c 0.373,0.36 0.383,0.952 0.023,1.326 -0.185,0.189 -0.429,0.285 -0.674,0.285"
   id="path100" />
	<path
   display="inline"
   d="m 20.041,29.248 c -0.518,0 -0.937,-0.42 -0.937,-0.937 V 5.937 C 19.104,5.421 19.523,5 20.041,5 c 0.519,0 0.938,0.421 0.938,0.937 v 22.375 c 0,0.516 -0.419,0.936 -0.938,0.936"
   id="path101" />
</g>
<g
   display="none"
   id="g104"
   transform="translate(-0.13650607,-0.1358344)">
	<path
   display="inline"
   d="M 33.125,35 H 6.875 C 6.356,35 5.937,34.58 5.937,34.062 v -5.75 c 0,-0.518 0.419,-0.938 0.938,-0.938 0.518,0 0.937,0.421 0.937,0.938 v 4.813 h 24.375 v -4.813 c 0,-0.518 0.419,-0.938 0.938,-0.938 0.518,0 0.938,0.421 0.938,0.938 v 5.75 c 0,0.518 -0.42,0.938 -0.938,0.938"
   id="path102" />
	<path
   display="inline"
   d="m 20.042,29.249 c -0.235,0 -0.469,-0.089 -0.651,-0.265 l -7.535,-7.277 c -0.373,-0.36 -0.383,-0.954 -0.023,-1.326 0.358,-0.372 0.954,-0.384 1.325,-0.023 l 6.884,6.649 6.884,-6.649 c 0.372,-0.36 0.968,-0.349 1.324,0.023 0.36,0.372 0.351,0.966 -0.022,1.326 l -7.534,7.277 c -0.182,0.176 -0.417,0.265 -0.652,0.265"
   id="path103" />
	<path
   display="inline"
   d="m 20.042,29.249 c -0.518,0 -0.938,-0.421 -0.938,-0.939 V 5.937 C 19.104,5.418 19.524,5 20.042,5 20.561,5 20.98,5.418 20.98,5.937 V 28.31 c -0.001,0.518 -0.419,0.939 -0.938,0.939"
   id="path104" />
</g>
<g
   display="none"
   id="g108"
   transform="translate(-0.13650607,-0.1358344)">
	<path
   display="inline"
   d="M 33.732,10.556 H 24.888 C 24.845,9.068 23.628,7.87 22.13,7.87 H 6.267 C 4.741,7.87 3.5,9.11 3.5,10.637 v 10.405 c 0,1.527 1.241,2.768 2.767,2.768 h 1.292 l 4.637,5.353 c 0.156,0.181 0.382,0.282 0.619,0.282 0.094,0 0.19,-0.016 0.287,-0.051 0.318,-0.119 0.532,-0.428 0.532,-0.768 V 23.81 h 1.478 c 0.043,1.487 1.26,2.687 2.758,2.687 h 8.498 v 4.815 c 0,0.34 0.214,0.648 0.534,0.769 0.095,0.034 0.19,0.05 0.284,0.05 0.236,0 0.463,-0.102 0.619,-0.281 l 4.637,-5.353 h 1.291 c 1.526,0 2.768,-1.241 2.768,-2.768 V 13.323 C 36.5,11.796 35.259,10.556 33.732,10.556 Z m -18.63,2.767 v 8.848 h -2.288 c -0.452,0 -0.819,0.368 -0.819,0.819 v 3.44 L 8.552,22.452 C 8.395,22.274 8.17,22.17 7.906,22.17 c 0,0 -1.638,0 -1.638,0 -0.623,0 -1.129,-0.505 -1.129,-1.129 V 10.637 c 0,-0.622 0.507,-1.13 1.129,-1.13 h 15.864 c 0.594,0 1.068,0.466 1.111,1.049 h -5.374 c -1.526,0 -2.767,1.24 -2.767,2.767 z m 19.76,10.406 c 0,0.623 -0.507,1.129 -1.13,1.129 h -1.664 c -0.236,0 -0.463,0.102 -0.621,0.282 l -3.442,3.977 v -3.44 c 0,-0.451 -0.368,-0.818 -0.819,-0.818 h -9.317 c -0.622,0 -1.128,-0.506 -1.128,-1.129 V 13.323 c 0,-0.623 0.506,-1.13 1.128,-1.13 h 15.864 c 0.623,0 1.13,0.507 1.13,1.13 v 10.406 z"
   id="path105" />
	<path
   display="inline"
   d="m 32.841,14.703 h -14.08 c -0.452,0 -0.819,0.367 -0.819,0.818 0,0.451 0.367,0.819 0.819,0.819 h 14.08 c 0.452,0 0.82,-0.368 0.82,-0.819 0,-0.451 -0.368,-0.818 -0.82,-0.818 z"
   id="path106" />
	<path
   display="inline"
   d="m 32.841,17.706 h -14.08 c -0.452,0 -0.819,0.367 -0.819,0.819 0,0.451 0.367,0.819 0.819,0.819 h 14.08 c 0.452,0 0.82,-0.368 0.82,-0.819 0,-0.452 -0.368,-0.819 -0.82,-0.819 z"
   id="path107" />
	<path
   display="inline"
   d="m 25.426,20.71 h -6.665 c -0.452,0 -0.819,0.367 -0.819,0.818 0,0.451 0.367,0.819 0.819,0.819 h 6.665 c 0.451,0 0.818,-0.368 0.818,-0.819 0,-0.451 -0.367,-0.818 -0.818,-0.818 z"
   id="path108" />
</g>
<g
   display="none"
   id="g113"
   transform="translate(-0.13650607,-0.1358344)">
	<g
   display="inline"
   id="g112">
		<path
   d="M 31.228,5 H 8.772 C 6.762,5 5.125,6.637 5.125,8.646 v 14.731 c 0,2.011 1.636,3.646 3.647,3.646 H 21.07 v 7.086 c 0,0.372 0.23,0.705 0.578,0.833 0.103,0.039 0.207,0.058 0.312,0.058 0.253,0 0.499,-0.107 0.673,-0.307 l 6.644,-7.669 h 1.951 c 2.011,0 3.647,-1.636 3.647,-3.646 V 8.646 C 34.875,6.637 33.238,5 31.228,5 Z m 1.868,18.378 c 0,1.028 -0.838,1.867 -1.868,1.867 0,0 -2.303,0 -2.315,0 -0.264,-0.013 -0.529,0.093 -0.716,0.306 l -5.347,6.173 v -5.589 c 0,-0.492 -0.398,-0.89 -0.89,-0.89 H 8.772 c -1.029,0 -1.866,-0.839 -1.866,-1.867 V 8.646 c 0,-1.028 0.837,-1.865 1.866,-1.865 h 22.455 c 1.03,0 1.868,0.837 1.868,1.865 v 14.732 z"
   id="path109" />
		<path
   d="m 29.965,10.87 h -19.93 c -0.491,0 -0.89,0.399 -0.89,0.892 0,0.49 0.398,0.89 0.89,0.89 h 19.93 c 0.492,0 0.891,-0.399 0.891,-0.89 C 30.855,11.27 30.457,10.87 29.965,10.87 Z"
   id="path110" />
		<path
   d="m 29.965,15.123 h -19.93 c -0.491,0 -0.89,0.397 -0.89,0.89 0,0.489 0.398,0.89 0.89,0.89 h 19.93 c 0.492,0 0.891,-0.4 0.891,-0.89 -0.001,-0.492 -0.399,-0.89 -0.891,-0.89 z"
   id="path111" />
		<path
   d="m 19.469,19.373 h -9.434 c -0.491,0 -0.89,0.399 -0.89,0.89 0,0.492 0.398,0.892 0.89,0.892 h 9.434 c 0.491,0 0.89,-0.399 0.89,-0.892 -0.001,-0.491 -0.399,-0.89 -0.89,-0.89 z"
   id="path112" />
	</g>
</g>
<path
   display="none"
   d="m 19.877494,34.383166 c -0.225,0 -0.437,-0.096 -0.585,-0.262 -4.41,-4.925 -12.7840001,-14.279 -12.9200001,-14.439 -1.295,-1.582 -2.009,-3.551 -2.009,-5.545 0,-4.8500004 4.026,-8.7920004 8.9740001,-8.7920004 2.429,0 4.697,0.927 6.387,2.615 l 0.139,0.138 0.139,-0.138 c 1.69,-1.688 3.958,-2.615 6.388,-2.615 4.948,0 8.974,3.942 8.974,8.7920004 0,2.02 -0.684,3.923 -1.975,5.499 l -12.929,14.485 c -0.149,0.166 -0.361,0.262 -0.583,0.262 z m -6.54,-27.4690004 c -4.0830001,0 -7.4050001,3.2400004 -7.4050001,7.2240004 0,1.656 0.561,3.216 1.62,4.507 0.245,0.284 8.0500001,9.006 12.1750001,13.612 l 0.147,0.164 12.321,-13.803 c 1.047,-1.278 1.598,-2.826 1.598,-4.48 0,-3.983 -3.321,-7.2240004 -7.404,-7.2240004 -2.339,0 -4.491,1.045 -5.907,2.869 -0.15,0.191 -0.375,0.3030004 -0.619,0.3030004 -0.244,0 -0.471,-0.1110004 -0.621,-0.3030004 -1.414,-1.824 -3.566,-2.869 -5.905,-2.869 z"
   id="path113" />
<path
   display="none"
   d="m 15.863494,30.864166 c -0.256,0 -0.513,-0.098 -0.707,-0.293 l -10.0000001,-10 c -0.391,-0.391 -0.391,-1.023 0,-1.414 0.391,-0.391 1.023,-0.391 1.414,0 l 9.2930001,9.293 19.293,-19.2930004 c 0.391,-0.391 1.022,-0.391 1.414,0 0.391,0.391 0.391,1.0230004 0,1.4140004 l -20,20 c -0.195,0.195 -0.451,0.293 -0.707,0.293"
   id="path114" />
<path
   display="none"
   d="m 28.620494,35.364166 c -2.557,0 -4.637,-2.079 -4.637,-4.637 0,-0.508 0.095,-1.02 0.291,-1.562 l 0.053,-0.147 -9.788,-6.17 -0.11,0.115 c -0.885,0.912 -2.065,1.416 -3.322,1.416 -2.5560001,0 -4.6360001,-2.081 -4.6360001,-4.638 0,-2.558 2.08,-4.637 4.6360001,-4.637 1.241,0 2.409,0.489 3.289,1.374 l 0.106,0.107 9.877,-5.731 -0.063,-0.156 c -0.221,-0.558 -0.333,-1.1310004 -0.333,-1.7000004 0,-2.556 2.08,-4.635 4.637,-4.635 2.556,0 4.636,2.079 4.636,4.635 0,2.5590004 -2.08,4.6390004 -4.636,4.6390004 -1.234,0 -2.397,-0.482 -3.275,-1.358 l -0.106,-0.107 -9.884,5.735 0.062,0.157 c 0.217,0.554 0.327,1.119 0.327,1.678 0,0.533 -0.104,1.081 -0.312,1.627 l -0.057,0.149 9.769,6.156 0.111,-0.116 c 0.892,-0.947 2.086,-1.466 3.365,-1.466 2.556,0 4.636,2.078 4.636,4.635 0,2.558 -2.08,4.637 -4.636,4.637 z m 0,-7.702 c -1.052,0 -2.019,0.534 -2.587,1.433 l -0.052,0.094 c -0.284,0.487 -0.429,1.004 -0.429,1.539 0,1.691 1.376,3.067 3.067,3.067 1.69,0 3.066,-1.376 3.066,-3.067 0.001,-1.691 -1.375,-3.066 -3.065,-3.066 z m -17.514,-10.987 c -1.6900001,0 -3.0660001,1.376 -3.0660001,3.067 0,1.69 1.376,3.068 3.0660001,3.068 1.041,0 2.002,-0.527 2.571,-1.406 0.329,-0.523 0.496,-1.089 0.496,-1.662 0,-0.522 -0.14,-1.028 -0.411,-1.508 -0.087,-0.094 -0.133,-0.151 -0.169,-0.213 l -0.045,-0.116 c -0.588,-0.782 -1.479,-1.23 -2.442,-1.23 z m 17.514,-10.7420004 c -1.691,0 -3.067,1.376 -3.067,3.065 0,1.6920004 1.376,3.0690004 3.067,3.0690004 1.69,0 3.066,-1.377 3.066,-3.0690004 0,-1.689 -1.376,-3.065 -3.066,-3.065 z"
   id="path115" />
<g
   display="none"
   id="g127"
   transform="translate(-0.13650607,-0.1358344)">
	<g
   display="inline"
   id="g119">
		<g
   id="g116">
			<path
   d="m 22.746,31.173 h -5.538 c -0.505,0 -0.912,-0.41 -0.912,-0.912 V 29.62 c 0.006,-0.551 -0.021,-0.938 -0.079,-1.154 -0.311,-1.139 -1.134,-2.094 -1.931,-3.02 -0.263,-0.303 -0.511,-0.592 -0.739,-0.883 -1.147,-1.459 -1.757,-3.207 -1.757,-5.061 0,-4.526 3.684,-8.207 8.21,-8.207 4.525,0 8.208,3.681 8.208,8.207 0,1.855 -0.607,3.605 -1.757,5.063 -0.201,0.258 -0.433,0.528 -0.675,0.813 -0.816,0.96 -1.727,2.031 -2.041,3.162 -0.055,0.202 -0.082,0.565 -0.078,1.073 v 0.646 c 0,0.504 -0.407,0.914 -0.911,0.914 z m -4.624,-1.826 h 3.712 c 0.01,-0.71 0.079,-1.06 0.142,-1.288 0.423,-1.523 1.471,-2.76 2.396,-3.846 0.243,-0.286 0.456,-0.536 0.645,-0.774 0.893,-1.136 1.366,-2.495 1.366,-3.936 0,-3.52 -2.862,-6.384 -6.382,-6.384 -3.52,0 -6.384,2.864 -6.384,6.384 0,1.438 0.472,2.798 1.366,3.934 0.211,0.27 0.442,0.535 0.687,0.818 0.843,0.979 1.888,2.192 2.31,3.733 0.062,0.241 0.134,0.608 0.142,1.359 z"
   id="path116" />
		</g>
		<g
   id="g117">
			<path
   d="m 22.746,33.588 h -5.538 c -0.505,0 -0.912,-0.409 -0.912,-0.914 0,-0.504 0.407,-0.911 0.912,-0.911 h 5.538 c 0.504,0 0.911,0.407 0.911,0.911 0,0.505 -0.407,0.914 -0.911,0.914 z"
   id="path117" />
		</g>
		<g
   id="g118">
			<path
   d="m 21.362,36 h -2.769 c -0.505,0 -0.914,-0.409 -0.914,-0.912 0,-0.504 0.409,-0.914 0.914,-0.914 h 2.769 c 0.502,0 0.912,0.41 0.912,0.914 0,0.503 -0.41,0.912 -0.912,0.912 z"
   id="path118" />
		</g>
	</g>
	<g
   display="inline"
   id="g120">
		<path
   d="m 34.592,20.415 h -3.648 c -0.504,0 -0.914,-0.407 -0.914,-0.912 0,-0.504 0.41,-0.912 0.914,-0.912 h 3.648 c 0.504,0 0.911,0.408 0.911,0.912 0,0.505 -0.407,0.912 -0.911,0.912 z"
   id="path119" />
	</g>
	<g
   display="inline"
   id="g121">
		<path
   d="M 9.057,20.415 H 5.408 c -0.504,0 -0.911,-0.407 -0.911,-0.912 0,-0.504 0.407,-0.912 0.911,-0.912 h 3.648 c 0.504,0 0.914,0.408 0.914,0.912 10e-4,0.505 -0.409,0.912 -0.913,0.912 z"
   id="path120" />
	</g>
	<g
   display="inline"
   id="g122">
		<path
   d="m 20,9.474 c -0.505,0 -0.914,-0.407 -0.914,-0.912 V 4.912 C 19.086,4.409 19.495,4 20,4 c 0.505,0 0.912,0.409 0.912,0.912 v 3.649 c 0,0.505 -0.407,0.913 -0.912,0.913 z"
   id="path121" />
	</g>
	<g
   display="inline"
   id="g123">
		<path
   d="m 30.314,30.733 c -0.232,0 -0.465,-0.089 -0.644,-0.268 l -2.579,-2.58 c -0.356,-0.355 -0.356,-0.934 0,-1.291 0.357,-0.356 0.934,-0.354 1.29,0.002 l 2.579,2.579 c 0.357,0.357 0.357,0.936 0,1.292 -0.178,0.179 -0.41,0.266 -0.646,0.266 z"
   id="path122" />
	</g>
	<g
   display="inline"
   id="g124">
		<path
   d="m 12.26,12.679 c -0.232,0 -0.466,-0.089 -0.646,-0.268 L 9.037,9.833 C 8.68,9.476 8.68,8.897 9.037,8.54 c 0.357,-0.356 0.934,-0.356 1.29,0 l 2.579,2.579 c 0.357,0.356 0.357,0.936 0,1.292 -0.178,0.179 -0.411,0.268 -0.646,0.268 z"
   id="path123" />
	</g>
	<g
   display="inline"
   id="g125">
		<path
   d="m 9.682,30.733 c -0.233,0 -0.466,-0.087 -0.645,-0.266 -0.357,-0.356 -0.357,-0.935 0,-1.292 l 2.581,-2.581 c 0.354,-0.356 0.931,-0.356 1.288,0 0.357,0.357 0.357,0.936 0,1.293 l -2.579,2.58 c -0.179,0.178 -0.411,0.266 -0.645,0.266 z"
   id="path124" />
	</g>
	<g
   display="inline"
   id="g126">
		<path
   d="m 27.738,12.679 c -0.233,0 -0.466,-0.089 -0.646,-0.268 -0.354,-0.356 -0.354,-0.934 0,-1.29 l 2.579,-2.579 c 0.354,-0.356 0.935,-0.358 1.29,-0.002 0.357,0.357 0.357,0.934 0,1.291 l -2.577,2.578 c -0.178,0.179 -0.411,0.27 -0.646,0.27 z"
   id="path125" />
	</g>
</g>
<g
   display="none"
   id="g129"
   transform="translate(-0.13650607,-0.1358344)">
	<path
   display="inline"
   d="m 20,23.563 c -1.997,0 -3.621,-1.618 -3.621,-3.61 0,-1.99 1.624,-3.61 3.621,-3.61 1.997,0 3.621,1.62 3.621,3.61 -10e-4,1.992 -1.625,3.61 -3.621,3.61 z m 0,-5.697 c -1.156,0 -2.097,0.936 -2.097,2.087 0,1.151 0.94,2.087 2.097,2.087 1.157,0 2.097,-0.936 2.097,-2.087 0,-1.151 -0.941,-2.087 -2.097,-2.087 z"
   id="path127" />
	<g
   display="inline"
   id="g128">
		<path
   d="m 34.516,23.432 -3.197,-1.847 c 0.072,-0.524 0.109,-1.055 0.109,-1.585 0,-0.53 -0.037,-1.063 -0.109,-1.587 l 3.197,-1.845 c 0.341,-0.197 0.458,-0.635 0.261,-0.977 L 31.206,9.405 C 31.11,9.24 30.954,9.121 30.771,9.072 30.588,9.022 30.393,9.051 30.23,9.143 L 27.032,10.99 C 26.192,10.332 25.272,9.8 24.286,9.402 V 5.714 C 24.285,5.318 23.967,5 23.57,5 h -7.142 c -0.395,0 -0.714,0.318 -0.714,0.714 v 3.689 c -0.986,0.397 -1.907,0.93 -2.746,1.588 L 9.771,9.146 C 9.43,8.947 8.993,9.064 8.795,9.406 l -3.571,6.186 c -0.095,0.165 -0.12,0.358 -0.072,0.543 0.049,0.183 0.169,0.339 0.333,0.434 l 3.197,1.845 C 8.608,18.938 8.571,19.47 8.571,20 c 0,0.53 0.038,1.061 0.111,1.585 L 5.485,23.43 c -0.341,0.197 -0.458,0.635 -0.261,0.977 l 3.571,6.186 c 0.095,0.165 0.251,0.284 0.435,0.335 0.182,0.048 0.377,0.021 0.541,-0.073 l 3.198,-1.845 c 0.839,0.656 1.76,1.188 2.746,1.588 v 3.689 c 0,0.394 0.32,0.714 0.714,0.714 h 7.142 c 0.396,0 0.715,-0.32 0.715,-0.714 v -3.689 c 0.986,-0.399 1.906,-0.932 2.748,-1.588 l 3.196,1.845 c 0.163,0.095 0.358,0.121 0.541,0.073 0.183,-0.051 0.339,-0.17 0.435,-0.335 l 3.571,-6.186 c 0.197,-0.343 0.079,-0.78 -0.261,-0.975 z m -4.191,5.828 -3.006,-1.735 c -0.263,-0.152 -0.592,-0.121 -0.822,0.076 -0.938,0.804 -2.003,1.419 -3.164,1.83 -0.284,0.101 -0.477,0.368 -0.477,0.674 v 3.467 h -5.714 v -3.467 c 0,-0.306 -0.19,-0.573 -0.477,-0.674 -1.16,-0.411 -2.225,-1.026 -3.164,-1.83 -0.23,-0.197 -0.56,-0.229 -0.822,-0.076 L 9.676,29.26 6.819,24.31 9.822,22.577 c 0.262,-0.15 0.401,-0.45 0.345,-0.748 C 10.056,21.228 10,20.612 10,20 c 0,-0.614 0.057,-1.228 0.167,-1.83 0.056,-0.296 -0.083,-0.598 -0.345,-0.748 l -3.003,-1.733 2.857,-4.95 3.004,1.735 c 0.262,0.152 0.591,0.121 0.822,-0.074 0.939,-0.804 2.003,-1.419 3.164,-1.83 0.287,-0.101 0.477,-0.37 0.477,-0.674 V 6.429 h 5.714 v 3.467 c 0,0.304 0.192,0.573 0.477,0.674 1.161,0.411 2.226,1.026 3.164,1.83 0.23,0.195 0.56,0.227 0.822,0.074 l 3.005,-1.735 2.857,4.95 -3.004,1.733 c -0.262,0.15 -0.4,0.452 -0.345,0.748 0.11,0.602 0.167,1.216 0.167,1.83 0,0.612 -0.057,1.228 -0.167,1.828 -0.056,0.298 0.083,0.598 0.345,0.748 l 3.004,1.733 z"
   id="path128" />
	</g>
</g>
<g
   display="none"
   id="g132"
   transform="translate(-0.13650607,-0.1358344)">
	<path
   display="inline"
   d="m 27.383,9.585 c -0.393,0 -0.777,0.075 -1.143,0.224 -1.553,0.628 -2.303,2.404 -1.674,3.963 0.469,1.152 1.576,1.896 2.822,1.896 v 0 c 0.39,0 0.771,-0.074 1.133,-0.221 0.756,-0.306 1.346,-0.886 1.662,-1.635 0.318,-0.749 0.326,-1.573 0.021,-2.326 -0.466,-1.155 -1.577,-1.901 -2.821,-1.901 z m 1.444,3.65 c -0.165,0.386 -0.47,0.686 -0.858,0.844 -0.187,0.074 -0.383,0.113 -0.58,0.113 -0.644,0 -1.215,-0.383 -1.454,-0.977 -0.325,-0.801 0.062,-1.717 0.86,-2.04 0.188,-0.076 0.387,-0.115 0.588,-0.115 0.642,0 1.214,0.385 1.456,0.978 0.155,0.387 0.151,0.812 -0.012,1.197 z"
   id="path129" />
	<path
   display="inline"
   d="m 14.458,21.109 c -2.441,0 -4.429,1.986 -4.429,4.43 0,2.438 1.987,4.422 4.429,4.422 2.44,0 4.426,-1.984 4.426,-4.422 0,-2.443 -1.986,-4.43 -4.426,-4.43 z m 0,7.377 c -1.628,0 -2.954,-1.322 -2.954,-2.947 0,-1.629 1.326,-2.954 2.954,-2.954 1.628,0 2.951,1.325 2.951,2.954 0,1.625 -1.323,2.947 -2.951,2.947 z"
   id="path130" />
	<path
   display="inline"
   d="m 23.614,23.695 -1.813,-0.663 c -0.106,-0.313 -0.233,-0.618 -0.379,-0.916 l 0.811,-1.754 c 0.193,-0.415 0.127,-0.909 -0.168,-1.255 -0.355,-0.422 -0.752,-0.818 -1.177,-1.177 -0.212,-0.179 -0.482,-0.279 -0.762,-0.279 -0.167,0 -0.329,0.035 -0.482,0.102 -0.003,0.002 -0.007,0.004 -0.011,0.006 l -1.754,0.813 c -0.294,-0.144 -0.6,-0.271 -0.913,-0.376 l -0.67,-1.821 c -0.158,-0.425 -0.553,-0.724 -1.005,-0.763 -0.549,-0.048 -1.116,-0.048 -1.664,0 -0.453,0.039 -0.848,0.338 -1.008,0.767 l -0.665,1.813 c -0.311,0.107 -0.617,0.234 -0.915,0.38 L 9.282,17.759 C 9.279,17.757 9.276,17.755 9.273,17.753 9.119,17.687 8.957,17.651 8.79,17.651 c -0.281,0 -0.552,0.101 -0.763,0.28 -0.426,0.361 -0.821,0.757 -1.173,1.172 -0.296,0.346 -0.363,0.838 -0.172,1.257 l 0.813,1.754 c -0.144,0.294 -0.271,0.6 -0.377,0.914 l -1.816,0.667 c -0.428,0.157 -0.729,0.553 -0.769,1.012 -0.043,0.55 -0.043,1.106 0,1.658 0.039,0.455 0.34,0.851 0.768,1.007 l 1.815,0.668 c 0.106,0.312 0.233,0.617 0.379,0.913 l -0.814,1.763 c -0.188,0.409 -0.122,0.897 0.169,1.249 0.355,0.421 0.753,0.818 1.18,1.18 0.003,0.002 0.005,0.004 0.007,0.006 0.212,0.175 0.479,0.269 0.753,0.269 0.172,0 0.344,-0.038 0.494,-0.109 l 1.75,-0.813 c 0.294,0.146 0.601,0.272 0.917,0.38 l 0.668,1.815 c 0.16,0.433 0.557,0.732 1.012,0.765 0.279,0.023 0.558,0.036 0.827,0.036 0.27,0 0.548,-0.013 0.828,-0.036 0.455,-0.032 0.852,-0.332 1.011,-0.767 l 0.666,-1.81 c 0.31,-0.107 0.616,-0.236 0.914,-0.38 l 1.765,0.816 c 0.152,0.067 0.314,0.102 0.482,0.102 v 0 c 0.272,0 0.54,-0.094 0.751,-0.267 0.004,-0.002 0.008,-0.006 0.012,-0.01 0.424,-0.359 0.82,-0.755 1.174,-1.172 0.299,-0.346 0.367,-0.842 0.172,-1.257 l -0.811,-1.757 c 0.145,-0.298 0.271,-0.604 0.377,-0.917 l 1.815,-0.666 c 0.429,-0.158 0.729,-0.554 0.769,-1.009 0.044,-0.55 0.044,-1.108 -10e-4,-1.664 -0.038,-0.452 -0.341,-0.847 -0.768,-1.005 z m -0.688,2.359 -1.977,0.729 c -0.221,0.082 -0.391,0.263 -0.455,0.489 -0.13,0.454 -0.312,0.896 -0.54,1.311 -0.114,0.205 -0.122,0.453 -0.023,0.667 l 0.883,1.909 c -0.23,0.259 -0.478,0.505 -0.737,0.735 l -1.91,-0.886 c -0.212,-0.098 -0.46,-0.088 -0.666,0.023 -0.42,0.232 -0.862,0.415 -1.311,0.548 -0.226,0.063 -0.407,0.232 -0.488,0.453 l -0.722,1.969 c -0.354,0.023 -0.689,0.023 -1.042,0 L 13.211,32.028 C 13.129,31.807 12.948,31.638 12.723,31.573 12.259,31.44 11.818,31.256 11.414,31.031 11.207,30.916 10.959,30.906 10.745,31.006 L 8.837,31.89 C 8.575,31.66 8.329,31.411 8.102,31.157 L 8.985,29.244 C 9.084,29.03 9.074,28.783 8.96,28.577 8.73,28.16 8.547,27.721 8.418,27.269 8.353,27.043 8.184,26.859 7.962,26.779 L 5.99,26.054 c -0.02,-0.346 -0.02,-0.695 0,-1.039 l 1.976,-0.727 c 0.22,-0.08 0.388,-0.263 0.455,-0.487 0.133,-0.463 0.315,-0.903 0.541,-1.311 0.114,-0.207 0.124,-0.455 0.025,-0.668 L 8.104,19.916 c 0.228,-0.257 0.475,-0.503 0.737,-0.737 l 1.91,0.884 c 0.213,0.1 0.461,0.09 0.667,-0.023 0.418,-0.232 0.858,-0.415 1.307,-0.543 0.227,-0.065 0.409,-0.234 0.49,-0.456 l 0.723,-1.973 c 0.346,-0.021 0.696,-0.021 1.042,0 l 0.727,1.977 c 0.081,0.224 0.263,0.393 0.489,0.456 0.458,0.132 0.899,0.313 1.309,0.539 0.205,0.113 0.453,0.123 0.667,0.023 l 1.906,-0.884 c 0.261,0.23 0.507,0.477 0.737,0.737 l -0.883,1.912 c -0.099,0.213 -0.09,0.461 0.024,0.666 0.229,0.415 0.412,0.855 0.543,1.311 0.064,0.225 0.234,0.407 0.455,0.487 l 1.973,0.723 c 0.018,0.345 0.018,0.695 -0.001,1.039 z"
   id="path131" />
	<path
   display="inline"
   d="m 33.979,13.039 c 0.013,-0.24 0.017,-0.483 0.004,-0.726 l 1.154,-1.049 C 35.452,10.98 35.577,10.53 35.45,10.117 35.309,9.662 35.131,9.222 34.918,8.805 34.728,8.434 34.349,8.203 33.937,8.203 c -0.016,0 -0.031,0 -0.039,0 L 32.342,8.255 C 32.185,8.076 32.013,7.903 31.833,7.738 l 0.074,-1.56 c 0,-0.006 0,-0.014 0.002,-0.021 C 31.917,5.732 31.68,5.335 31.315,5.148 30.903,4.931 30.468,4.747 30.013,4.595 29.904,4.561 29.788,4.541 29.672,4.541 c -0.303,0 -0.597,0.127 -0.807,0.35 L 27.802,6.03 C 27.558,6.015 27.318,6.013 27.075,6.025 L 26.026,4.868 c -0.207,-0.23 -0.507,-0.362 -0.819,-0.362 -0.111,0 -0.221,0.017 -0.328,0.05 -0.447,0.14 -0.887,0.316 -1.307,0.53 -0.385,0.193 -0.623,0.597 -0.605,1.021 l 0.051,1.558 c -0.182,0.162 -0.354,0.331 -0.517,0.51 L 20.942,8.1 C 20.51,8.079 20.11,8.31 19.914,8.688 19.696,9.101 19.51,9.539 19.361,9.989 19.36,9.994 19.358,10 19.356,10.004 c -0.123,0.405 -0.012,0.84 0.302,1.14 l 1.138,1.061 c -0.016,0.243 -0.018,0.487 -0.006,0.729 l -1.158,1.049 c -0.314,0.29 -0.435,0.737 -0.311,1.138 0.067,0.223 0.145,0.441 0.238,0.672 0.094,0.23 0.19,0.44 0.292,0.64 0.188,0.377 0.566,0.609 0.987,0.609 0.012,0 0.021,0 0.037,-0.002 l 1.553,-0.052 c 0.16,0.182 0.332,0.355 0.512,0.519 l -0.075,1.565 c -0.018,0.423 0.214,0.824 0.587,1.021 0.399,0.212 0.836,0.398 1.303,0.554 0.111,0.038 0.229,0.056 0.346,0.056 0.307,0 0.601,-0.129 0.807,-0.354 l 1.062,-1.134 c 0.242,0.014 0.484,0.016 0.729,0.004 l 1.047,1.151 c 0.21,0.232 0.51,0.364 0.82,0.364 0.109,0 0.22,-0.015 0.325,-0.048 0.45,-0.14 0.892,-0.318 1.304,-0.528 0.385,-0.189 0.625,-0.592 0.611,-1.027 l -0.052,-1.552 c 0.181,-0.16 0.354,-0.333 0.517,-0.512 l 1.559,0.075 c 0.019,0.002 0.036,0.002 0.055,0.002 0.414,0 0.786,-0.227 0.975,-0.59 0.217,-0.407 0.403,-0.843 0.553,-1.299 0.133,-0.403 0.02,-0.854 -0.293,-1.15 z m -1.493,-0.95 c 0.043,0.386 0.039,0.773 -0.008,1.15 -0.03,0.234 0.057,0.469 0.228,0.63 l 1.226,1.148 c -0.081,0.222 -0.172,0.435 -0.273,0.64 l -1.675,-0.082 c -0.236,-0.01 -0.461,0.09 -0.608,0.272 -0.246,0.304 -0.525,0.578 -0.828,0.816 -0.185,0.145 -0.289,0.369 -0.281,0.605 l 0.057,1.671 c -0.21,0.098 -0.427,0.187 -0.646,0.264 l -1.129,-1.245 c -0.141,-0.153 -0.34,-0.24 -0.545,-0.24 -0.027,0 -0.055,0 -0.08,0.004 -0.393,0.042 -0.781,0.038 -1.154,-0.008 -0.232,-0.03 -0.469,0.056 -0.629,0.229 l -1.146,1.224 C 24.77,19.085 24.557,18.992 24.352,18.895 l 0.081,-1.677 c 0.012,-0.236 -0.091,-0.461 -0.273,-0.609 -0.303,-0.246 -0.575,-0.522 -0.81,-0.822 -0.145,-0.188 -0.37,-0.292 -0.607,-0.286 l -1.674,0.058 c -0.047,-0.104 -0.094,-0.209 -0.14,-0.322 -0.045,-0.109 -0.085,-0.218 -0.123,-0.323 l 1.243,-1.129 c 0.174,-0.158 0.264,-0.391 0.237,-0.623 -0.04,-0.38 -0.036,-0.772 0.009,-1.162 0.028,-0.232 -0.057,-0.465 -0.229,-0.626 l -1.225,-1.145 c 0.08,-0.22 0.17,-0.433 0.272,-0.641 l 1.68,0.079 c 0.235,0.012 0.46,-0.09 0.608,-0.272 0.24,-0.296 0.52,-0.572 0.826,-0.816 0.184,-0.145 0.287,-0.367 0.279,-0.602 L 24.451,6.302 C 24.662,6.205 24.879,6.117 25.097,6.04 l 1.127,1.245 c 0.159,0.173 0.39,0.261 0.622,0.238 0.384,-0.041 0.776,-0.039 1.164,0.008 0.232,0.026 0.466,-0.058 0.624,-0.23 l 1.144,-1.222 c 0.219,0.08 0.435,0.173 0.646,0.272 l -0.08,1.675 c -0.012,0.234 0.088,0.459 0.268,0.607 0.311,0.251 0.582,0.532 0.814,0.828 0.146,0.184 0.369,0.288 0.605,0.282 l 1.678,-0.056 c 0.096,0.209 0.184,0.424 0.261,0.647 l -1.245,1.129 c -0.174,0.159 -0.263,0.391 -0.239,0.626 z"
   id="path132" />
</g>
<path
   display="none"
   d="m 33.149494,18.186166 c -0.14,-0.133 -0.321,-0.206 -0.524,-0.206 -0.192,0.002 -0.374,0.075 -0.509,0.206 l -12.741,12.348 c -1.263,1.223 -2.952,1.905 -4.756,1.918 h -0.054 c -1.784,0 -3.464,-0.657 -4.7320001,-1.848 -1.279,-1.202 -1.992,-2.81 -2.006,-4.523 -0.014,-1.715 0.674,-3.333 1.935,-4.554 L 23.032494,8.6641656 c 0.913,-0.886 2.134,-1.379 3.438,-1.388 h 0.039 c 1.287,0 2.503,0.473 3.421,1.336 0.925,0.871 1.438,2.0300004 1.45,3.2680004 0.008,1.237 -0.488,2.406 -1.399,3.288 l -13.272,12.864 c -0.563,0.547 -1.315,0.851 -2.12,0.856 h -0.024 c -0.795,0 -1.544,-0.293 -2.111,-0.824 -0.569,-0.534 -0.886,-1.248 -0.892,-2.013 -0.006,-0.76 0.299,-1.479 0.859,-2.022 l 12.63,-12.238 c 0.139,-0.134 0.216,-0.313 0.216,-0.5 0,-0.189 -0.077,-0.368 -0.216,-0.503 -0.138,-0.132 -0.321,-0.206 -0.523,-0.206 -0.191,0.002 -0.373,0.075 -0.508,0.206 l -12.633,12.241 c -0.839,0.813 -1.296,1.891 -1.287,3.034 0.008,1.143 0.483,2.214 1.334,3.017 0.838,0.786 1.949,1.221 3.129,1.221 h 0.036 c 1.194,-0.01 2.312,-0.461 3.146,-1.269 l 13.271,-12.867 c 1.19,-1.154 1.839,-2.68 1.826,-4.296 -0.013,-1.62 -0.686,-3.1370004 -1.894,-4.2710004 -1.189,-1.119 -2.765,-1.734 -4.439,-1.734 h -0.051 c -1.691,0.013 -3.277,0.651 -4.463,1.799 L 8.7244939,20.527166 c -1.539,1.493 -2.378,3.469 -2.361,5.565 0.017,2.095 0.886,4.057 2.45,5.527 1.5410001,1.448 3.5830001,2.245 5.7510001,2.245 h 0.066 c 2.192,-0.017 4.244,-0.845 5.778,-2.33 l 12.743,-12.349 c 0.283,-0.275 0.282,-0.722 -0.002,-0.999 z"
   id="path133" />
<g
   display="none"
   id="g136"
   transform="translate(-0.13650607,-0.1358344)">
	<path
   display="inline"
   d="m 21.58,30.382 c 0.169,0.389 0.51,0.618 0.859,0.618 0.146,0 0.291,-0.038 0.428,-0.119 0.477,-0.27 0.666,-0.938 0.432,-1.489 L 14.809,9.616 C 14.805,9.607 14.8,9.599 14.796,9.592 14.779,9.556 14.76,9.522 14.741,9.488 14.723,9.46 14.707,9.432 14.69,9.406 14.671,9.379 14.65,9.357 14.629,9.335 14.608,9.305 14.583,9.276 14.555,9.249 14.538,9.234 14.515,9.22 14.496,9.202 14.462,9.175 14.431,9.151 14.395,9.129 14.386,9.125 14.384,9.12 14.377,9.115 14.36,9.106 14.345,9.101 14.331,9.092 14.295,9.075 14.257,9.058 14.221,9.046 14.196,9.039 14.17,9.03 14.143,9.024 14.107,9.018 14.076,9.013 14.039,9.003 14.011,9.002 13.981,9 13.955,9 c -0.032,0 -0.068,0 -0.1,0.002 -0.03,0.01 -0.062,0.015 -0.091,0.019 -0.03,0.009 -0.06,0.015 -0.089,0.026 -0.034,0.01 -0.067,0.027 -0.102,0.044 -0.015,0.01 -0.034,0.013 -0.053,0.023 -0.006,0.005 -0.011,0.01 -0.017,0.014 C 13.469,9.149 13.44,9.17 13.41,9.194 13.387,9.211 13.361,9.228 13.34,9.25 13.317,9.272 13.296,9.3 13.275,9.324 13.254,9.351 13.228,9.376 13.207,9.407 13.19,9.429 13.178,9.453 13.163,9.479 13.142,9.514 13.119,9.551 13.104,9.59 13.098,9.598 13.094,9.606 13.089,9.612 L 4.602,29.392 C 4.365,29.943 4.558,30.612 5.031,30.881 5.17,30.962 5.316,31 5.458,31 5.811,31 6.15,30.771 6.317,30.382 L 8.076,26.285 H 19.823 Z M 9.031,24.061 13.95,12.606 18.868,24.061 Z"
   id="path134" />
	<g
   display="inline"
   id="g135">
		<path
   d="m 27.088,18.815 c -0.285,0.363 -0.481,0.463 -0.737,0.463 -0.458,0 -0.825,-0.429 -0.825,-0.955 0,-0.23 0.057,-0.396 0.142,-0.559 0.796,-1.451 2.33,-2.603 4.718,-2.603 3.295,0 5.115,2.24 5.115,5.598 v 9.055 c 0,0.561 -0.397,1.021 -0.882,1.021 -0.483,0 -0.88,-0.46 -0.88,-1.021 V 28.626 C 33.028,30.176 31.379,31 29.674,31 c -3.011,0 -4.916,-1.679 -4.916,-4.71 0,-2.896 1.905,-4.643 4.974,-4.643 h 4.007 V 20.76 c 0,-2.239 -1.279,-3.624 -3.354,-3.624 -1.506,0 -2.417,0.527 -3.297,1.679 z m 6.65,6.06 v -1.383 h -4.007 c -1.849,0 -3.125,0.89 -3.125,2.798 0,1.713 1.021,2.8 3.237,2.8 1.991,0 3.895,-1.416 3.895,-4.215 z"
   id="path135" />
	</g>
</g>
<path
   display="none"
   d="m 35.066494,8.8661656 c -0.188,-0.143 -0.432,-0.19 -0.66,-0.129 l -26.2570001,7.2330004 -2.819,-0.818 c -0.227,-0.065 -0.475,-0.02 -0.664,0.122 -0.191,0.142 -0.303,0.366 -0.303,0.605 v 7.766 c 0,0.24 0.114,0.467 0.309,0.608 0.193,0.143 0.443,0.186 0.673,0.113 l 2.631,-0.821 c 0.053,0.012 0.11,0.017 0.167,0.017 0.065,0 0.127,-0.007 0.187,-0.023 l 4.1660001,1.19 c 0,0.009 -10e-4,0.017 -10e-4,0.027 0.043,1.679 0.73,3.252 1.937,4.43 1.208,1.182 2.802,1.831 4.487,1.831 2.189,0 4.197,-1.104 5.378,-2.916 l 10.104,2.886 c 0.066,0.021 0.138,0.03 0.207,0.03 0.163,0 0.322,-0.053 0.455,-0.153 0.191,-0.142 0.301,-0.366 0.301,-0.604 V 9.4681656 c -10e-4,-0.237 -0.11,-0.459 -0.298,-0.602 z m -10.801,17.6510004 c -0.073,-0.033 -0.15,-0.055 -0.227,-0.063 l -15.1380001,-4.325 v -4.795 l 21.9260001,-6.041 v 17.101 z m -18.3900001,-9.63 1.512,0.437 v 4.818 l -1.512,0.473 z m 13.0430001,12.617 c -2.487,0 -4.586,-1.906 -4.878,-4.333 l 8.712,2.489 c -0.922,1.155 -2.323,1.844 -3.834,1.844 z m 14.933,-0.246 -1.513,-0.433 v -17.949 l 1.513,-0.416 z"
   id="path136" />
<path
   display="none"
   d="m 11.455494,34.864166 c -0.39,0 -0.706,-0.317 -0.706,-0.708 v -5.044 c 0,-0.389 0.316,-0.706 0.706,-0.706 h 1.681 c 1.776,0 2.998,-0.936 3.734,-2.859 0.401,-1.05 0.534,-2.122 0.578,-2.669 l 0.018,-0.224 -0.207,-0.088 c -1.033,-0.441 -1.94,-1.127 -2.697,-2.042 -0.615,-0.744 -1.11,-1.627 -1.472,-2.628 l -0.127,-0.35 -0.323,0.185 c -0.361,0.208 -0.77,0.315 -1.185,0.315 -0.39,0 -0.706,-0.317 -0.706,-0.706 0,-0.391 0.316,-0.706 0.706,-0.706 0.538,0 0.975,-0.437 0.975,-0.976 0,-0.537 -0.437,-0.975 -0.975,-0.975 H 9.7734939 c -2.244,0 -4.068,-1.826 -4.068,-4.07 0,-2.2430004 1.824,-4.0670004 4.068,-4.0670004 0.7730001,0 1.5250001,0.217 2.1760001,0.632 l 0.481,0.304 v -1.912 c 0,-0.391 0.317,-0.706 0.706,-0.706 h 13.453 c 0.39,0 0.706,0.315 0.706,0.706 v 1.912 l 0.48,-0.304 c 0.651,-0.415 1.403,-0.632 2.177,-0.632 2.243,0 4.068,1.824 4.068,4.0670004 0,2.244 -1.825,4.07 -4.068,4.07 h -1.683 c -0.537,0 -0.975,0.438 -0.975,0.975 0,0.539 0.438,0.976 0.975,0.976 0.39,0 0.706,0.315 0.706,0.706 0,0.389 -0.316,0.706 -0.706,0.706 -0.414,0 -0.823,-0.107 -1.185,-0.315 l -0.323,-0.185 -0.127,0.35 c -0.36,1.001 -0.855,1.884 -1.473,2.628 -0.758,0.915 -1.664,1.603 -2.696,2.04 l -0.207,0.09 0.018,0.224 c 0.044,0.547 0.176,1.621 0.578,2.669 0.736,1.924 1.958,2.859 3.734,2.859 h 1.681 c 0.39,0 0.706,0.317 0.706,0.706 v 5.044 c 0,0.391 -0.316,0.708 -0.706,0.708 z m 16.11,-1.414 v -3.632 h -15.405 v 3.632 z m -4.602,-5.044 -0.4,-0.507 c -0.423,-0.532 -0.776,-1.173 -1.05,-1.901 -0.379,-1.009 -0.543,-2.006 -0.613,-2.665 l -0.033,-0.311 -0.311,0.034 c -0.228,0.022 -0.459,0.037 -0.693,0.037 -0.232,0 -0.466,-0.015 -0.693,-0.037 l -0.311,-0.034 -0.033,0.311 c -0.071,0.657 -0.235,1.654 -0.614,2.665 -0.271,0.724 -0.623,1.364 -1.048,1.901 l -0.399,0.507 z m -9.121,-14.43 c 0,4.463 2.532,7.703 6.021,7.703 3.489,0 6.021,-3.24 6.021,-7.703 V 6.2751656 h -12.042 z M 9.7734939,7.9581656 c -1.464,0 -2.656,1.192 -2.656,2.6560004 0,1.465 1.192,2.656 2.656,2.656 h 1.6820001 c 0.199,0 0.396,0.024 0.585,0.073 l 0.39,0.1 v -2.829 c 0,-1.4640004 -1.192,-2.6560004 -2.6570001,-2.6560004 z m 20.1800001,0 c -1.466,0 -2.657,1.192 -2.657,2.6560004 v 2.829 l 0.391,-0.1 c 0.188,-0.049 0.385,-0.073 0.584,-0.073 h 1.683 c 1.465,0 2.656,-1.191 2.656,-2.656 -0.001,-1.4640004 -1.192,-2.6560004 -2.657,-2.6560004 z"
   id="path137" />
<g
   display="none"
   id="g141"
   transform="translate(-0.13650607,-0.1358344)">
	<g
   display="inline"
   id="g140">
		<path
   d="M 13.082,34.5 12.905,34.369 C 10.022,32.263 8.727,18.181 8.727,14.79 v -0.677 h 19.846 v 0.677 c 0,0.486 -0.034,1.178 -0.099,2.01 0.21,0.055 0.411,0.128 0.6,0.216 1.168,0.555 1.927,1.764 2.141,3.403 0.205,1.584 -0.129,3.395 -0.936,5.096 -0.92,1.931 -2.39,3.519 -3.945,4.267 -0.693,2.45 -1.457,3.994 -2.267,4.588 l -0.18,0.13 z m 10.335,-1.354 c 1.986,-1.987 3.618,-13.307 3.788,-17.681 h -17.11 c 0.166,4.479 1.532,15.736 3.459,17.681 z m 4.937,-14.965 c -0.263,2.655 -0.79,6.471 -1.53,9.69 0.877,-0.723 1.677,-1.769 2.233,-2.939 0.679,-1.425 0.98,-2.921 0.849,-4.209 -0.123,-1.229 -0.625,-2.11 -1.409,-2.484 -0.047,-0.022 -0.094,-0.042 -0.143,-0.058 z"
   id="path138" />
		<path
   d="M 16.358,11.323 16.473,11.22 C 17.11,10.662 17.789,9.814 17.618,9.257 17.545,9.018 17.291,8.834 16.838,8.694 15.959,8.42 15.406,7.974 15.24,7.403 15.006,6.592 15.539,5.57 16.707,4.6 L 16.826,4.5 17.82,5.209 17.699,5.31 c -0.675,0.561 -1.289,1.353 -1.142,1.857 0.068,0.235 0.324,0.417 0.785,0.561 0.869,0.269 1.418,0.716 1.593,1.294 0.251,0.829 -0.277,1.882 -1.45,2.89 l -0.118,0.104 z"
   id="path139" />
		<path
   d="m 20.175,12.534 0.116,-0.104 c 0.634,-0.557 1.314,-1.403 1.145,-1.962 C 21.363,10.231 21.106,10.045 20.652,9.905 19.777,9.634 19.224,9.187 19.057,8.613 18.821,7.81 19.355,6.79 20.523,5.812 l 0.123,-0.102 0.99,0.711 -0.121,0.099 c -0.675,0.563 -1.287,1.355 -1.141,1.86 0.089,0.303 0.43,0.43 0.863,0.59 0.566,0.211 1.275,0.474 1.517,1.261 0.298,0.982 -0.598,2.173 -1.455,2.893 l -0.117,0.1 z"
   id="path140" />
	</g>
</g>
<path
   display="none"
   d="m 34.653494,10.608166 c -0.134,-0.134 -0.316,-0.209 -0.505,-0.209 -0.002,0 -0.002,0 -0.002,0 l -2.141,0.008 V 7.5431656 c 0,-0.395 -0.32,-0.714 -0.714,-0.714 h -0.894 c -5.365,0 -8.508,0.778 -10.535,2.659 -2.027,-1.881 -5.17,-2.659 -10.5350001,-2.659 h -0.893 c -0.394,0 -0.714,0.319 -0.714,0.714 v 2.8640004 l -2.141,-0.008 c -0.194,-10e-4 -0.373,0.075 -0.507,0.209 -0.134,0.134 -0.209,0.317 -0.209,0.506 v 18.393 c 0,0.395 0.32,0.714 0.715,0.714 h 0.893 c 9.6120001,0 11.6660001,2.169 11.8690001,2.419 0.136,0.163 0.338,0.26 0.553,0.26 h 1.94 c 0.216,0 0.418,-0.097 0.554,-0.26 0.202,-0.25 2.257,-2.419 11.869,-2.419 h 0.893 c 0.395,0 0.715,-0.319 0.715,-0.714 v -18.393 c -10e-4,-0.189 -0.077,-0.372 -0.211,-0.506 z m -28.3610001,18.185 v -16.963 l 1.429,0.006 v 16.97 c -0.404,-0.009 -0.82,-0.013 -1.25,-0.013 z m 2.857,0.059 v -17.723 c 0,-0.002 0,-0.004 0,-0.008 V 8.2571656 h 0.179 c 5.2210001,0 8.1010001,0.738 9.8200001,2.5340004 v 20.632 c -0.946,-0.869 -3.471,-2.268 -9.9990001,-2.571 z m 11.4290001,2.571 v -20.632 c 1.718,-1.7960004 4.6,-2.5340004 9.82,-2.5340004 h 0.179 v 2.8640004 17.731 c -6.53,0.303 -9.053,1.702 -9.999,2.571 z m 12.856,-2.63 h -0.179 c -0.431,0 -0.846,0.004 -1.25,0.013 v -16.97 l 1.429,-0.006 z"
   id="path141" />
<g
   display="none"
   id="g145"
   transform="translate(-0.13650607,-0.1358344)">
	<path
   display="inline"
   d="M 5.285,32.556 C 4.852,32.556 4.5,32.203 4.5,31.771 V 8.229 C 4.5,7.796 4.852,7.444 5.285,7.444 h 29.43 c 0.434,0 0.785,0.353 0.785,0.785 V 31.77 c 0,0.433 -0.352,0.785 -0.785,0.785 H 5.285 Z m 0.784,-1.57 H 33.93 V 16.041 H 6.069 Z m 0,-16.514 H 33.93 V 9.014 H 6.069 Z"
   id="path142" />
	<path
   display="inline"
   d="m 10.333,11.745 c 0,0.497 -0.402,0.899 -0.898,0.899 -0.497,0 -0.897,-0.402 -0.897,-0.899 0,-0.494 0.4,-0.896 0.897,-0.896 0.496,0 0.898,0.402 0.898,0.896"
   id="path143" />
	<path
   display="inline"
   d="m 13.827,11.745 c 0,0.497 -0.403,0.899 -0.897,0.899 -0.496,0 -0.898,-0.402 -0.898,-0.899 0,-0.494 0.402,-0.896 0.898,-0.896 0.494,0 0.897,0.402 0.897,0.896"
   id="path144" />
	<path
   display="inline"
   d="m 17.321,11.745 c 0,0.497 -0.402,0.899 -0.898,0.899 -0.497,0 -0.897,-0.402 -0.897,-0.899 0,-0.494 0.4,-0.896 0.897,-0.896 0.496,0 0.898,0.402 0.898,0.896"
   id="path145" />
</g>
<g
   display="none"
   id="g147"
   transform="translate(-0.13650607,-0.1358344)">
	<path
   display="inline"
   d="m 20.869,25.282 c 0,0.483 -0.389,0.877 -0.869,0.877 -0.48,0 -0.868,-0.394 -0.868,-0.877 0,-0.484 0.388,-0.877 0.868,-0.877 0.48,0 0.869,0.393 0.869,0.877"
   id="path146" />
	<path
   display="inline"
   d="m 13.035,34.05 c -0.419,0 -0.759,-0.341 -0.759,-0.76 0,-0.418 0.34,-0.758 0.759,-0.758 h 6.206 V 29.229 H 5.759 C 5.34,29.229 5,28.889 5,28.47 V 6.708 C 5,6.289 5.34,5.95 5.759,5.95 H 34.24 C 34.66,5.95 35,6.289 35,6.708 V 28.47 c 0,0.419 -0.34,0.76 -0.76,0.76 H 20.76 v 3.303 h 6.207 c 0.419,0 0.76,0.34 0.76,0.758 0,0.419 -0.341,0.76 -0.76,0.76 H 13.035 Z M 6.519,27.711 H 33.482 V 22.682 H 6.519 Z m 0,-6.548 H 33.482 V 7.468 H 6.519 Z"
   id="path147" />
</g>
<g
   display="none"
   id="g150"
   transform="translate(-0.13650607,-0.1358344)">
	<path
   display="inline"
   d="M 13.094,35 C 11.664,35 10.5,33.813 10.5,32.353 V 7.649 C 10.5,6.188 11.664,5 13.094,5 h 13.81 C 28.336,5 29.5,6.188 29.5,7.649 v 24.703 c 0,1.461 -1.164,2.647 -2.596,2.647 h -13.81 z m -1.329,-2.647 c 0,0.748 0.597,1.355 1.329,1.355 h 13.81 c 0.732,0 1.328,-0.607 1.328,-1.355 V 30.392 L 11.765,30.44 Z m 0,-3.158 16.514,-0.049 -0.047,-18.34 -16.467,0.047 z M 13.094,6.292 c -0.732,0 -1.329,0.609 -1.329,1.357 V 9.608 L 28.279,9.561 28.232,7.649 c 0,-0.748 -0.596,-1.357 -1.328,-1.357 z"
   id="path148" />
	<path
   display="inline"
   d="m 17.897,8.429 h 4.205 c 0.271,0 0.491,-0.225 0.491,-0.502 0,-0.277 -0.22,-0.503 -0.491,-0.503 h -4.205 c -0.271,0 -0.492,0.226 -0.492,0.503 0,0.277 0.221,0.502 0.492,0.502 z"
   id="path149" />
	<path
   display="inline"
   d="m 20,30.538 c -0.815,0 -1.478,0.677 -1.478,1.509 0,0.833 0.663,1.51 1.478,1.51 0.814,0 1.479,-0.677 1.479,-1.51 0,-0.832 -0.665,-1.509 -1.479,-1.509 z m 0,2.014 c -0.271,0 -0.493,-0.228 -0.493,-0.505 0,-0.277 0.222,-0.502 0.493,-0.502 0.271,0 0.492,0.225 0.492,0.502 0,0.277 -0.221,0.505 -0.492,0.505 z"
   id="path150" />
</g>
<g
   id="g153"
   style="fill:#002246;fill-opacity:1;stroke:none;stroke-opacity:1"
   transform="translate(-5.0006717,-5)">
	<path
   fill="#010101"
   d="M 12.419,35 C 10.196,35 8.127,33.8 7.02,31.866 L 5.314,28.886 C 4.663,27.742 5.059,26.282 6.2,25.625 l 3.979,-2.477 c 0.369,-0.211 0.793,-0.323 1.22,-0.323 0.818,0 1.567,0.411 2.004,1.101 l 0.559,0.88 c 0.172,0.258 0.448,0.412 0.739,0.412 0.11,0 0.218,-0.023 0.316,-0.066 2.157,-0.861 4.979,-3.395 5.794,-4.149 0.039,-0.041 3.306,-3.452 4.332,-5.987 0.151,-0.372 0.009,-0.813 -0.342,-1.044 L 23.918,13.409 C 22.842,12.72 22.498,11.313 23.133,10.204 L 25.635,6.175 C 25.813,5.864 26.569,5 27.7,5 c 0.394,0 0.797,0.107 1.201,0.32 l 2.964,1.695 c 2.482,1.425 3.695,4.408 2.885,7.096 -1.422,4.729 -4.106,8.979 -7.979,12.632 -3.672,3.884 -7.928,6.572 -12.657,8.001 C 13.573,34.914 13.003,35 12.419,35 Z M 11.381,24.331 c -0.158,0 -0.312,0.043 -0.446,0.127 l -3.963,2.467 c -0.207,0.115 -0.367,0.316 -0.431,0.549 -0.063,0.222 -0.034,0.456 0.08,0.657 l 1.706,2.983 c 0.846,1.476 2.449,2.467 3.987,2.467 0.499,0 0.98,-0.102 1.429,-0.301 10.237,-4.555 15.351,-9.669 19.54,-19.546 0.798,-1.877 -0.156,-4.25 -2.168,-5.403 L 28.133,6.624 C 27.992,6.546 27.822,6.501 27.666,6.501 c -0.337,0 -0.627,0.197 -0.758,0.515 l -2.471,3.96 c -0.222,0.398 -0.082,0.913 0.309,1.155 l 0.869,0.554 c 0.973,0.623 1.367,1.841 0.938,2.895 -1.116,2.749 -4.486,6.303 -4.63,6.453 -0.029,0.027 -3.607,3.427 -6.349,4.527 -0.277,0.111 -0.569,0.168 -0.868,0.168 -0.816,0 -1.57,-0.416 -2.018,-1.112 l -0.556,-0.88 c -0.135,-0.2 -0.402,-0.405 -0.751,-0.405 z"
   id="path151"
   style="fill:#002246;fill-opacity:1;stroke:none;stroke-opacity:1" />
	<path
   fill="#010101"
   d="m 6.768,17.132 c -0.417,0 -0.754,-0.337 -0.754,-0.753 0,-5.718 4.649,-10.37 10.364,-10.37 0.417,0 0.755,0.34 0.755,0.754 0,0.415 -0.338,0.755 -0.755,0.755 -4.882,0 -8.856,3.971 -8.856,8.855 -0.001,0.418 -0.339,0.759 -0.754,0.759 z"
   id="path152"
   style="fill:#002246;fill-opacity:1;stroke:none;stroke-opacity:1" />
	<path
   fill="#010101"
   d="m 12.343,17.132 c -0.416,0 -0.753,-0.337 -0.753,-0.753 0,-2.641 2.147,-4.787 4.788,-4.787 0.417,0 0.755,0.338 0.755,0.754 0,0.415 -0.338,0.753 -0.755,0.753 -1.809,0 -3.28,1.472 -3.28,3.28 -0.001,0.416 -0.338,0.753 -0.755,0.753 z"
   id="path153"
   style="fill:#002246;fill-opacity:1;stroke:none;stroke-opacity:1" />
</g>
</svg>
